<svg width="16" height="16" viewBox="0 0 16 16" fill="none" xmlns="http://www.w3.org/2000/svg">
<rect width="16" height="16" rx="4" fill="#555555"/>
<path d="M7.9999 12.6664C7.8111 12.6664 7.6471 12.5971 7.5079 12.4584C7.36923 12.3192 7.2999 12.1552 7.2999 11.9664V8.69999H4.0335C3.8447 8.69999 3.6807 8.63065 3.5415 8.49199C3.40283 8.35279 3.3335 8.18879 3.3335 7.99999C3.3335 7.81119 3.40283 7.64719 3.5415 7.50799C3.6807 7.36932 3.8447 7.29999 4.0335 7.29999H7.2999V4.03359C7.2999 3.84479 7.36923 3.68079 7.5079 3.54159C7.6471 3.40292 7.8111 3.33359 7.9999 3.33359C8.1887 3.33359 8.3527 3.40292 8.4919 3.54159C8.63056 3.68079 8.6999 3.84479 8.6999 4.03359V7.29999H11.9663C12.1551 7.29999 12.3191 7.36932 12.4583 7.50799C12.597 7.64719 12.6663 7.81119 12.6663 7.99999C12.6663 8.18879 12.597 8.35279 12.4583 8.49199C12.3191 8.63065 12.1551 8.69999 11.9663 8.69999H8.6999V11.9664C8.6999 12.1552 8.63056 12.3192 8.4919 12.4584C8.3527 12.5971 8.1887 12.6664 7.9999 12.6664Z" fill="#C4C4C4"/>
</svg>
