<svg width="72" height="24" viewBox="0 0 72 24" fill="none" xmlns="http://www.w3.org/2000/svg">
<path d="M13.0839 6.456H14.6919V17.568H13.0839V6.456ZM14.3319 10.596H16.2999V11.916H14.3319V10.596ZM6.31594 7.332H7.89994V10.032H10.1319V7.332H11.7159V15H6.31594V7.332ZM7.89994 11.268V13.716H10.1319V11.268H7.89994ZM17.031 15.048H27.087V16.344H17.031V15.048ZM21.243 12.948H22.839V15.576H21.243V12.948ZM18.159 7.176H25.959V10.872H19.767V12.744H18.183V9.624H24.375V8.436H18.159V7.176ZM18.183 12.108H26.211V13.392H18.183V12.108ZM35.1621 6.444H36.7701V17.556H35.1621V6.444ZM36.3501 10.692H38.3061V12H36.3501V10.692ZM32.2461 7.596H33.8061C33.8061 10.932 32.5341 13.788 28.8381 15.648L27.9501 14.436C30.8661 12.924 32.2461 10.884 32.2461 7.872V7.596ZM28.5621 7.596H33.0621V8.88H28.5621V7.596ZM46.7531 6.456H48.3611V17.568H46.7531V6.456ZM43.4771 7.608H45.0611C45.0611 11.004 43.9091 13.788 39.9611 15.696L39.1331 14.424C42.3251 12.888 43.4771 10.872 43.4771 7.896V7.608ZM39.7211 7.608H44.2331V8.868H39.7211V7.608Z" fill="#FF9632"/>
<path d="M60 9.49994C60 9.36733 60.0527 9.24015 60.1465 9.14639C60.2402 9.05262 60.3674 8.99994 60.5 8.99994H63C63.1326 8.99994 63.2598 9.05262 63.3536 9.14639C63.4473 9.24015 63.5 9.36733 63.5 9.49994V11.9999C63.5 12.1325 63.4473 12.2597 63.3536 12.3535C63.2598 12.4473 63.1326 12.4999 63 12.4999C62.8674 12.4999 62.7402 12.4473 62.6465 12.3535C62.5527 12.2597 62.5 12.1325 62.5 11.9999V10.7069L59.854 13.3539C59.8075 13.4004 59.7523 13.4373 59.6916 13.4625C59.6309 13.4876 59.5658 13.5006 59.5 13.5006C59.4343 13.5006 59.3692 13.4876 59.3084 13.4625C59.2477 13.4373 59.1925 13.4004 59.146 13.3539C59.0995 13.3075 59.0626 13.2523 59.0375 13.1915C59.0123 13.1308 58.9994 13.0657 58.9994 12.9999C58.9994 12.9342 59.0123 12.8691 59.0375 12.8084C59.0626 12.7476 59.0995 12.6924 59.146 12.6459L61.793 9.99994H60.5C60.3674 9.99994 60.2402 9.94726 60.1465 9.85349C60.0527 9.75972 60 9.63255 60 9.49994ZM56.633 7.69194C56.8018 7.19826 57.1207 6.76972 57.5451 6.46631C57.9696 6.16291 58.4783 5.99984 59 5.99994H64C64.6631 5.99994 65.2989 6.26333 65.7678 6.73217C66.2366 7.20101 66.5 7.8369 66.5 8.49994V13.4999C66.5 14.5979 65.792 15.5299 64.808 15.8669V16.2309C64.808 16.5659 64.691 16.9939 64.416 17.3469C64.127 17.7189 63.668 17.9999 63.039 17.9999H57.269C56.9046 18.0025 56.5433 17.9325 56.2061 17.7942C55.869 17.6559 55.5627 17.4519 55.305 17.1942C55.0474 16.9365 54.8436 16.6301 54.7054 16.2929C54.5672 15.9557 54.4974 15.5944 54.5 15.2299V9.46294C54.5 8.91394 54.697 8.45694 55.046 8.13994C55.386 7.83094 55.831 7.69294 56.269 7.69294H56.633V7.69194ZM56.5 8.69194H56.27C56.0691 8.6839 55.8723 8.75092 55.718 8.87994C55.6 8.98694 55.5 9.16394 55.5 9.46194V15.2309C55.5 16.2239 56.276 17.0009 57.27 17.0009H63.039C63.338 17.0009 63.513 16.8799 63.627 16.7329C63.7371 16.5881 63.8 16.4128 63.807 16.2309V15.9999H59C58.337 15.9999 57.7011 15.7365 57.2322 15.2677C56.7634 14.7989 56.5 14.163 56.5 13.4999V8.69194ZM59 6.99994C58.6022 6.99994 58.2207 7.15797 57.9394 7.43928C57.658 7.72058 57.5 8.10211 57.5 8.49994V13.4999C57.5 13.8978 57.658 14.2793 57.9394 14.5606C58.2207 14.8419 58.6022 14.9999 59 14.9999H64C64.3978 14.9999 64.7794 14.8419 65.0607 14.5606C65.342 14.2793 65.5 13.8978 65.5 13.4999V8.49994C65.5 8.10211 65.342 7.72058 65.0607 7.43928C64.7794 7.15797 64.3978 6.99994 64 6.99994H59Z" fill="#FF9632"/>
<rect x="0.5" y="0.5" width="71" height="23" rx="4.5" stroke="#FF9632"/>
</svg>
