<svg width="10" height="10" viewBox="0 0 10 10" fill="none" xmlns="http://www.w3.org/2000/svg">
<path d="M8.39146 9.14853L4.86787 5.40578C4.76014 5.2919 4.70629 5.14576 4.70629 4.9995C4.70629 4.85331 4.76017 4.70722 4.86787 4.59321L8.39147 0.85047C8.61603 0.614086 8.99006 0.604238 9.22693 0.828309C9.46549 1.053 9.47391 1.42863 9.25002 1.66402L6.08839 5.00048L9.25002 8.33694C9.47391 8.57234 9.46553 8.94538 9.22693 9.17167C8.99006 9.3955 8.61603 9.38565 8.39146 9.14853Z" fill="#6B7280"/>
<path d="M3.68639 9.14853L0.162791 5.40578C0.0550636 5.2919 0.00121249 5.14576 0.0012125 4.9995C0.00121251 4.85331 0.0550884 4.70722 0.162791 4.59321L3.68639 0.85047C3.91095 0.614086 4.28498 0.604238 4.52186 0.828309C4.76041 1.053 4.76883 1.42863 4.54494 1.66402L1.38331 5.00048L4.54494 8.33694C4.76883 8.57234 4.76046 8.94538 4.52186 9.17167C4.28498 9.3955 3.91095 9.38565 3.68639 9.14853Z" fill="#6B7280"/>
</svg>
