<svg width="24" height="19" viewBox="0 0 24 19" fill="none" xmlns="http://www.w3.org/2000/svg">
<path d="M20.3303 1.54615C18.7767 0.823846 17.1156 0.298906 15.3789 0C15.1656 0.383186 14.9164 0.898581 14.7446 1.30857C12.8985 1.03268 11.0693 1.03268 9.25716 1.30857C9.08539 0.898581 8.83056 0.383186 8.61536 0C6.87681 0.298906 5.21376 0.825775 3.66019 1.54997C0.526643 6.25541 -0.322811 10.844 0.101917 15.3674C2.18025 16.9097 4.19441 17.8466 6.17458 18.4596C6.66349 17.791 7.09953 17.0802 7.47518 16.3311C6.75975 16.0609 6.07453 15.7276 5.42707 15.3406C5.59884 15.2141 5.76686 15.0819 5.92918 14.9459C9.8782 16.7813 14.1689 16.7813 18.0707 14.9459C18.235 15.0819 18.403 15.2141 18.5728 15.3406C17.9235 15.7295 17.2364 16.0628 16.521 16.333C16.8966 17.0802 17.3308 17.7929 17.8216 18.4615C19.8036 17.8485 21.8197 16.9116 23.898 15.3674C24.3964 10.1236 23.0467 5.57718 20.3303 1.54615ZM8.01318 12.5855C6.82772 12.5855 5.85555 11.4858 5.85555 10.1466C5.85555 8.80737 6.80696 7.70574 8.01318 7.70574C9.21942 7.70574 10.1916 8.80544 10.1708 10.1466C10.1727 11.4858 9.21942 12.5855 8.01318 12.5855ZM15.9867 12.5855C14.8013 12.5855 13.8291 11.4858 13.8291 10.1466C13.8291 8.80737 14.7805 7.70574 15.9867 7.70574C17.193 7.70574 18.1651 8.80544 18.1444 10.1466C18.1444 11.4858 17.193 12.5855 15.9867 12.5855Z" fill="#F7F8FA"/>
</svg>
