<svg width="19" height="13" viewBox="0 0 19 13" fill="none" xmlns="http://www.w3.org/2000/svg">
<path d="M8.19774 10.8329C8.47893 10.8329 8.732 11.0578 8.732 11.3671C8.732 11.6483 8.50705 11.9014 8.19774 11.9014C7.91655 11.9014 7.66347 11.6765 7.66347 11.3671C7.66347 11.0578 7.91655 10.8329 8.19774 10.8329ZM16.4648 7.57106C16.1836 7.57106 15.9305 7.3461 15.9305 7.03679C15.9305 6.7556 16.1555 6.50253 16.4648 6.50253C16.746 6.50253 16.9991 6.72748 16.9991 7.03679C16.9991 7.31798 16.746 7.57106 16.4648 7.57106ZM16.4648 5.40588C15.565 5.40588 14.8339 6.13698 14.8339 7.03679C14.8339 7.20551 14.862 7.37422 14.9182 7.54294L9.54746 10.4111C9.23815 9.96119 8.732 9.70812 8.19774 9.70812C7.57912 9.70812 7.01673 10.0737 6.73554 10.6079L1.89903 8.0772C1.39289 7.79601 0.999219 6.98055 1.05546 6.19321C1.08358 5.79954 1.22417 5.49023 1.42101 5.37776C1.5616 5.2934 1.7022 5.32152 1.89903 5.40588L1.92715 5.434C3.22064 6.10886 7.4104 8.30216 7.57912 8.38651C7.86031 8.49899 8.0009 8.55523 8.47893 8.33027L17.1396 3.8312C17.2802 3.77496 17.4208 3.66248 17.4208 3.46565C17.4208 3.21258 17.1678 3.1001 17.1678 3.1001C16.6616 2.87515 15.9024 2.5096 15.1713 2.17217C13.5966 1.44107 11.797 0.59749 11.0097 0.175701C10.3348 -0.189848 9.77241 0.119463 9.68806 0.175701L9.49122 0.260059C5.92008 2.05969 1.19605 4.39358 0.914861 4.5623C0.436835 4.84349 0.127523 5.43399 0.0994039 6.16509C0.0431654 7.31798 0.633669 8.52711 1.47725 8.9489L6.59494 11.5921C6.70742 12.3794 7.4104 12.9981 8.19774 12.9981C9.09755 12.9981 9.80053 12.2951 9.82865 11.3953L15.4525 8.35839C15.7337 8.58335 16.0992 8.69582 16.4648 8.69582C17.3646 8.69582 18.0957 7.96472 18.0957 7.06491C18.0957 6.13698 17.3646 5.40588 16.4648 5.40588Z" fill="white"/>
</svg>
