<svg width="24" height="24" viewBox="0 0 24 24" fill="none" xmlns="http://www.w3.org/2000/svg">
<path d="M17 7V6.5H17.5V7H17ZM11.4718 13.2353C11.2765 13.4306 10.96 13.4306 10.7647 13.2353C10.5694 13.04 10.5694 12.7235 10.7647 12.5282L11.4718 13.2353ZM16.5 11.7054V7H17.5V11.7054H16.5ZM17 7.5H12.2946V6.5H17V7.5ZM17.3536 7.35355L11.4718 13.2353L10.7647 12.5282L16.6464 6.64645L17.3536 7.35355Z" fill="white"/>
<path d="M16.4114 14.0595V15.0004C16.4114 15.9432 16.4114 16.4146 16.1185 16.7075C15.8256 17.0004 15.3542 17.0004 14.4114 17.0004H9.00058C8.05777 17.0004 7.58636 17.0004 7.29347 16.7075C7.00057 16.4146 7.00057 15.9432 7.00057 15.0004V9.5896C7.00057 8.64679 7.00057 8.17539 7.29347 7.88249C7.58636 7.5896 8.05777 7.5896 9.00057 7.5896H9.94145" stroke="white" stroke-linecap="round"/>
</svg>
