<svg width="120" height="51" viewBox="0 0 120 51" fill="none" xmlns="http://www.w3.org/2000/svg">
<g clip-path="url(#clip0_721_173152)">
<path d="M7.21917 37.3725L112.781 37.3726C116.492 37.3726 119.5 40.4232 119.5 44.1863C119.5 47.9494 116.492 51 112.781 51L7.21917 51C3.50828 51 0.499999 47.9494 0.499999 44.1863C0.5 40.4231 3.50828 37.3725 7.21917 37.3725Z" fill="black"/>
<path d="M33.1929 8.18125C39.8366 1.44405 50.6062 1.44405 57.2499 8.18126L59.9989 10.9689L62.7478 8.18126C69.3915 1.44405 80.1611 1.44406 86.8048 8.18126C93.4485 14.9185 93.4485 25.8395 86.8048 32.5767L84.0558 35.3644L71.7491 47.8442L68.6395 50.9976L51.3606 50.9976L48.2509 47.8442L35.9442 35.3644L33.1953 32.5767C26.5515 25.8395 26.5515 14.9185 33.1953 8.18125L33.1929 8.18125Z" fill="#FF6464"/>
<path d="M31.6107 5.71634C35.2462 2.02976 40.0793 -4.71539e-06 45.2212 -4.26587e-06C50.3631 -3.81635e-06 55.1962 2.02976 58.8316 5.71634L60.001 6.90216L61.1704 5.71634C64.8034 2.02976 69.6365 -2.13142e-06 74.7785 -1.68189e-06C79.9204 -1.23237e-06 84.7535 2.02977 88.3889 5.71634C95.8932 13.3262 95.8932 25.708 88.3889 33.3178L70.9544 50.9976L64.6313 50.9976L85.2274 30.1118C88.014 27.2859 89.5488 23.5228 89.5488 19.5159C89.5488 15.509 88.014 11.7459 85.2274 8.91998C82.4407 6.09408 78.7298 4.53769 74.7785 4.53769C70.8271 4.53769 67.1163 6.09408 64.3296 8.91998L59.9986 13.3118L55.6677 8.91998C52.881 6.09408 49.1702 4.53769 45.2188 4.53769C41.2675 4.53768 37.5566 6.09408 34.7699 8.91997C29.008 14.763 29.008 24.2687 34.7699 30.1094L55.366 50.9952L49.0429 50.9952L31.6084 33.3154C24.1041 25.7056 24.1041 13.3238 31.6084 5.71395L31.6107 5.71634Z" fill="white"/>
<path opacity="0.38" d="M48.0315 47.8442L50.922 47.8442L69.0779 47.8442L71.9683 47.8442L74.1184 47.8442L70.9498 51L68.7997 51L65.9092 51L54.0906 51L51.2002 51L49.05 51L45.8814 47.8442L48.0315 47.8442Z" fill="black"/>
</g>
<defs>
<clipPath id="clip0_721_173152">
<rect width="119" height="51" fill="white" transform="matrix(-1 -8.74228e-08 -8.74228e-08 1 119.5 0)"/>
</clipPath>
</defs>
</svg>
