<svg width="170" height="170" viewBox="0 0 170 170" fill="none" xmlns="http://www.w3.org/2000/svg">
<path d="M84.67 169.34C131.432 169.34 169.34 131.432 169.34 84.67C169.34 37.908 131.432 0 84.67 0C37.908 0 0 37.908 0 84.67C0 131.432 37.908 169.34 84.67 169.34Z" fill="#FFD541"/>
<path d="M84.8686 23.4199C101.229 23.4199 116.609 29.7899 128.179 41.3599C139.749 52.9299 146.119 68.3099 146.119 84.6699C146.119 101.03 139.749 116.41 128.179 127.98C116.609 139.55 101.229 145.92 84.8686 145.92C68.5086 145.92 53.1286 139.55 41.5586 127.98C29.9886 116.41 23.6186 101.03 23.6186 84.6699C23.6186 68.3099 29.9886 52.9299 41.5586 41.3599C53.1286 29.7899 68.5086 23.4199 84.8686 23.4199ZM84.8686 18.1099C48.1086 18.1099 18.3086 47.9099 18.3086 84.6699C18.3086 121.43 48.1086 151.23 84.8686 151.23C121.629 151.23 151.429 121.43 151.429 84.6699C151.429 47.9099 121.629 18.1099 84.8686 18.1099Z" fill="#231815"/>
<path d="M84.8692 5.31976C95.5792 5.31976 105.979 7.41977 115.759 11.5498C125.209 15.5498 133.699 21.2698 140.989 28.5598C148.279 35.8498 153.999 44.3398 157.999 53.7898C162.139 63.5698 164.229 73.9598 164.229 84.6798C164.229 95.3998 162.129 105.79 157.999 115.57C153.999 125.02 148.279 133.51 140.989 140.8C133.699 148.09 125.209 153.81 115.759 157.81C105.979 161.95 95.5892 164.04 84.8692 164.04C74.1492 164.04 63.7592 161.94 53.9792 157.81C44.5292 153.81 36.0392 148.09 28.7492 140.8C21.4592 133.51 15.7392 125.02 11.7392 115.57C7.59922 105.79 5.50922 95.3998 5.50922 84.6798C5.50922 73.9598 7.60922 63.5698 11.7392 53.7898C15.7392 44.3398 21.4592 35.8498 28.7492 28.5598C36.0392 21.2698 44.5292 15.5498 53.9792 11.5498C63.7592 7.40977 74.1492 5.31976 84.8692 5.31976ZM84.8692 0.00976562C38.1092 0.00976562 0.199219 37.9198 0.199219 84.6798C0.199219 131.44 38.1092 169.35 84.8692 169.35C131.629 169.35 169.539 131.44 169.539 84.6798C169.539 37.9198 131.629 0.00976562 84.8692 0.00976562Z" fill="#231815"/>
<path d="M89.2599 107.837V114.48H80.647V107.837V107.617L80.4285 107.589C70.2756 106.299 63.4576 100.946 62.6711 92.6625H72.9613C73.9243 97.2452 78.7144 100.012 85.3666 100.012C88.0969 100.012 90.273 99.5835 91.7756 98.7415C93.2927 97.8914 94.1244 96.6163 94.1244 94.9725C94.1244 93.6971 93.5297 92.6567 92.3915 91.8532C91.2651 91.0581 89.6037 90.4911 87.4415 90.126L87.4408 90.1259L79.1576 88.7509C74.2887 87.9339 70.6701 86.4204 68.2719 84.265C65.882 82.1171 64.6848 79.3149 64.6848 75.8675C64.6848 68.4291 70.7804 63.0458 80.4239 62.0035L80.647 61.9794V61.755V54.98H89.2599V61.95V62.1641L89.4715 62.197C93.6595 62.8487 97.3419 64.2485 100.093 66.5354C102.779 68.7675 104.591 71.8554 105.117 75.9575H94.7649C94.3508 73.8033 93.3327 72.1669 91.701 71.0665C90.0255 69.9364 87.7299 69.39 84.8414 69.39C82.1409 69.39 79.8874 69.9037 78.3 70.8719C76.7028 71.846 75.7794 73.2835 75.7794 75.09C75.7794 76.62 76.4058 77.763 77.6577 78.6203C78.8896 79.464 80.7223 80.0286 83.1392 80.4562L83.1398 80.4562L89.4666 81.5612C94.6857 82.4789 98.5533 83.8326 101.113 85.8221C103.656 87.7991 104.924 90.4162 104.924 93.9225C104.924 97.5232 103.47 100.606 100.819 102.956C98.1643 105.31 94.2992 106.937 89.4764 107.59L89.2599 107.619V107.837Z" fill="#231815" stroke="#60554C" stroke-width="0.5"/>
</svg>
