<svg width="14" height="14" viewBox="0 0 14 14" fill="none" xmlns="http://www.w3.org/2000/svg">
<path d="M5 2.33333H3.13333C2.38667 2.33333 2.01333 2.33333 1.728 2.47867C1.4771 2.60646 1.27313 2.81043 1.14533 3.06133C1 3.34667 1 3.72 1 4.46667V10.8667C1 11.6133 1 11.9867 1.14533 12.272C1.27316 12.5229 1.47713 12.7268 1.728 12.8547C2.01267 13 2.386 13 3.13133 13H9.53533C10.2807 13 10.6533 13 10.938 12.8547C11.1893 12.7267 11.3933 12.5227 11.5213 12.272C11.6667 11.9867 11.6667 11.614 11.6667 10.8687V9M9 3L5 7V9H7L11 5M9 3L11 1L13 3L11 5M9 3L11 5" stroke="white" stroke-linecap="round" stroke-linejoin="round"/>
</svg>
