<svg width="20" height="21" viewBox="0 0 20 21" fill="none" xmlns="http://www.w3.org/2000/svg">
<g opacity="0.6">
<path d="M9.99995 15.3203L6.58295 17.3623C6.43029 17.4456 6.28095 17.4803 6.13495 17.4663C5.98962 17.453 5.86129 17.4043 5.74995 17.3203C5.63862 17.2376 5.55529 17.1233 5.49995 16.9773C5.44462 16.8313 5.43762 16.682 5.47895 16.5293L6.37495 12.7163L3.35395 10.1543C3.22929 10.043 3.15295 9.9143 3.12495 9.7683C3.09695 9.62296 3.10395 9.48063 3.14595 9.3413C3.18729 9.20263 3.26362 9.0883 3.37495 8.9983C3.48629 8.90763 3.62529 8.8553 3.79195 8.8413L7.74995 8.4873L9.31195 4.8623C9.38195 4.70963 9.47929 4.59496 9.60395 4.5183C9.72929 4.4423 9.86129 4.4043 9.99995 4.4043C10.1386 4.4043 10.2706 4.4423 10.396 4.5183C10.5206 4.59496 10.618 4.70963 10.688 4.8623L12.25 8.5083L16.208 8.8413C16.3746 8.8553 16.5136 8.91096 16.625 9.0083C16.7363 9.10563 16.8126 9.22363 16.854 9.3623C16.896 9.50096 16.8996 9.63996 16.865 9.7793C16.8296 9.91796 16.7496 10.043 16.625 10.1543L13.625 12.7163L14.521 16.5293C14.5623 16.682 14.5553 16.8313 14.5 16.9773C14.4446 17.1233 14.3613 17.2376 14.25 17.3203C14.1386 17.4043 14.0103 17.453 13.865 17.4663C13.719 17.4803 13.5696 17.4456 13.417 17.3623L9.99995 15.3203Z" fill="#FFDA7C"/>
</g>
</svg>
