<svg width="44" height="44" viewBox="0 0 44 44" fill="none" xmlns="http://www.w3.org/2000/svg">
<rect x="0.5" y="0.5" width="43" height="43" rx="5.5" fill="#222222"/>
<rect x="0.5" y="0.5" width="43" height="43" rx="5.5" stroke="#888888"/>
<path d="M21.0833 27.5H22.9167C23.4208 27.5 23.8333 27.0875 23.8333 26.5833C23.8333 26.0792 23.4208 25.6667 22.9167 25.6667H21.0833C20.5792 25.6667 20.1667 26.0792 20.1667 26.5833C20.1667 27.0875 20.5792 27.5 21.0833 27.5ZM13.75 17.4167C13.75 17.9208 14.1625 18.3333 14.6667 18.3333H29.3333C29.8375 18.3333 30.25 17.9208 30.25 17.4167C30.25 16.9125 29.8375 16.5 29.3333 16.5H14.6667C14.1625 16.5 13.75 16.9125 13.75 17.4167ZM17.4167 22.9167H26.5833C27.0875 22.9167 27.5 22.5042 27.5 22C27.5 21.4958 27.0875 21.0833 26.5833 21.0833H17.4167C16.9125 21.0833 16.5 21.4958 16.5 22C16.5 22.5042 16.9125 22.9167 17.4167 22.9167Z" fill="white"/>
</svg>
