<svg width="12" height="13" viewBox="0 0 12 13" fill="none" xmlns="http://www.w3.org/2000/svg">
<mask id="mask0_728_141819" style="mask-type:luminance" maskUnits="userSpaceOnUse" x="0" y="0" width="12" height="13">
<path d="M12 0.825195H0V12.8252H12V0.825195Z" fill="white"/>
</mask>
<g mask="url(#mask0_728_141819)">
<path d="M7.7556 12.5347L2.34274 11.4115L0.553361 9.22663L0.178711 6.84339L0.556157 4.45178L4.02307 1.10742L9.27936 1.96516L11.0687 4.32884L11.8236 6.55841L10.8758 10.1822L7.7528 12.5347H7.7556ZM2.44619 11.2411L7.71086 12.3335L10.7137 10.0704L11.6307 6.564L10.8982 4.40148L9.17871 2.13559L4.08458 1.30859L0.729503 4.54398L0.368832 6.84339L0.732299 9.1484L2.44619 11.2411Z" fill="white"/>
<path fill-rule="evenodd" clip-rule="evenodd" d="M7.13763 4.62793L7.73596 4.83189L7.84779 5.44656L7.38367 5.87403L6.78815 5.67007L6.65674 5.0554L7.14043 4.62793H7.13763ZM7.18237 4.85145L6.87202 5.12805L6.9559 5.52199L7.33614 5.65331L7.6353 5.3795L7.56261 4.98556L7.18237 4.85424V4.85145Z" fill="white"/>
<path d="M8.99127 4.75342L8.65576 5.01325L8.91578 5.33456L9.23731 5.09149L8.99407 4.75621L8.99127 4.75342Z" fill="white"/>
<path fill-rule="evenodd" clip-rule="evenodd" d="M9.01392 4.61377L9.37459 5.1083L8.90208 5.46872L8.51904 4.99654L9.01392 4.61377ZM8.79863 5.03007L8.93563 5.1977L9.10339 5.06918L8.97477 4.89316L8.79863 5.03007Z" fill="white"/>
<path d="M4.92351 3.49902L4.67188 3.98796L5.16116 4.23942L5.41279 3.75048L4.92351 3.49902Z" fill="white"/>
<path fill-rule="evenodd" clip-rule="evenodd" d="M4.88149 3.36475L5.54412 3.7084L5.20023 4.37057L4.5376 4.02691L4.88149 3.36475ZM4.96537 3.63017L4.80321 3.94309L5.11635 4.10514L5.27851 3.79222L4.96537 3.63017Z" fill="white"/>
<path fill-rule="evenodd" clip-rule="evenodd" d="M1.65779 4.68389C1.67736 4.67272 1.69693 4.66992 1.7193 4.66992L2.97186 4.80683C2.98584 4.80683 2.99982 4.81241 3.0138 4.82079L5.43225 6.32673L8.48538 7.41078L9.20951 7.08948L9.48351 6.46643C9.48351 6.46643 9.49749 6.44128 9.50868 6.43011L10.0902 5.94117C10.1238 5.91323 10.1713 5.91043 10.2077 5.93279C10.244 5.95514 10.2608 5.99984 10.2496 6.04175L10.0287 6.8045L10.5348 7.05875C10.5515 7.06713 10.5683 7.0811 10.5767 7.09786L10.9737 7.81591C10.9849 7.83546 10.9877 7.85502 10.9849 7.87458L10.9709 7.99751C10.9681 8.03104 10.9458 8.05898 10.9178 8.07295L10.764 8.14838C10.7501 8.15677 10.7333 8.15956 10.7193 8.15956L9.90849 8.14559C9.90849 8.14559 9.88612 8.14559 9.87774 8.14L9.20392 7.89693L8.41827 8.37749C8.41827 8.37749 8.4043 8.38587 8.39591 8.38866L5.79852 9.16818C5.79852 9.16818 5.77615 9.17376 5.76497 9.17097L4.0399 9.07877C4.0399 9.07877 4.01194 9.07597 4.00075 9.06759L2.28966 8.21265C2.27289 8.20426 2.26171 8.19309 2.25052 8.17912L1.28873 6.69833C1.28873 6.69833 1.27755 6.67877 1.27475 6.66759L1.00075 5.55281C1.00075 5.55281 0.997958 5.53605 1.00075 5.52487L1.01473 5.11137C1.01473 5.07784 1.03431 5.0471 1.06226 5.03034L1.65779 4.6783V4.68389ZM1.73048 4.86829L1.21045 5.17563L1.19647 5.51928L1.46487 6.60613L2.4043 8.0506L4.07345 8.88599L5.76217 8.97539L8.32881 8.20426L9.14241 7.70694C9.16758 7.69018 9.19833 7.68738 9.22629 7.69856L9.92806 7.95281L10.6969 7.96678L10.7808 7.92487L10.7864 7.88575L10.4201 7.22359L9.86655 6.94699C9.82461 6.92464 9.80225 6.87714 9.81623 6.83244L9.97 6.30438L9.65406 6.56981L9.37447 7.20683C9.36329 7.22918 9.34651 7.24594 9.32415 7.25712L8.53011 7.60915C8.50774 7.62033 8.48258 7.62033 8.45742 7.60915L5.35677 6.50834C5.35677 6.50834 5.34279 6.50275 5.33719 6.49996L2.92713 4.99961L1.73048 4.86829Z" fill="white"/>
<path fill-rule="evenodd" clip-rule="evenodd" d="M1.60756 4.97691C1.62713 4.97691 1.6467 4.97691 1.66347 4.98809L2.42675 5.41556C2.42675 5.41556 2.44912 5.43233 2.45751 5.4435L3.09777 6.31522C3.09777 6.31522 3.09777 6.31522 3.10057 6.31801L3.65415 7.15619L4.41184 7.6619L5.26459 8.13407C5.26459 8.13407 5.28696 8.15084 5.29535 8.15922L6.50877 9.73501L6.53673 9.75456L6.64856 9.64281L6.66254 8.79624C6.66254 8.75433 6.6905 8.71801 6.73244 8.70404L8.33729 8.20113C8.39041 8.18437 8.44353 8.2123 8.46031 8.26539C8.47708 8.31847 8.44912 8.37156 8.396 8.38832L6.86105 8.87168L6.84707 9.68751C6.84707 9.71265 6.83589 9.7378 6.81911 9.75456L6.6206 9.95293C6.58705 9.98646 6.53393 9.99205 6.49479 9.96411L6.38854 9.88867C6.38854 9.88867 6.37456 9.8775 6.36897 9.86911L5.15835 8.29612L4.31958 7.83233C4.31958 7.83233 4.31399 7.83233 4.31399 7.82674L3.53393 7.30707C3.53393 7.30707 3.51436 7.2903 3.50597 7.27913L2.9412 6.42697L2.31492 5.57482L1.59637 5.17249L1.12387 5.2144C1.07074 5.21999 1.02321 5.18087 1.01762 5.12499C1.01203 5.07191 1.05117 5.02441 1.10709 5.01882L1.61035 4.97412L1.60756 4.97691Z" fill="white"/>
<path fill-rule="evenodd" clip-rule="evenodd" d="M5.47955 6.37957C5.50192 6.42986 5.47955 6.48574 5.42643 6.50809L3.62307 7.27084C3.57275 7.29319 3.51683 7.27084 3.49446 7.21775C3.47209 7.16746 3.49446 7.10879 3.54758 7.08923L5.35094 6.32649C5.40126 6.30413 5.45718 6.32648 5.47955 6.37957Z" fill="white"/>
<path fill-rule="evenodd" clip-rule="evenodd" d="M2.97164 4.80957C2.9996 4.81236 3.02476 4.82913 3.04154 4.85148L5.30062 8.1204C5.33138 8.1651 5.3202 8.22657 5.27546 8.2573C5.23073 8.28803 5.16922 8.27686 5.13846 8.23215L2.94368 5.05823L2.44601 5.53041C2.40687 5.56673 2.34536 5.56673 2.30622 5.52761C2.26987 5.4885 2.26987 5.42703 2.30901 5.38792L2.89056 4.83751C2.91013 4.81795 2.94089 4.80678 2.96885 4.81236L2.97164 4.80957Z" fill="white"/>
<path fill-rule="evenodd" clip-rule="evenodd" d="M9.99789 6.81833C10.0231 6.86583 10.0007 6.9245 9.95315 6.94965L9.3744 7.23183L9.29053 7.80739C9.28493 7.83812 9.26816 7.86327 9.243 7.87724C9.21783 7.89121 9.18708 7.894 9.15912 7.88282L8.47133 7.6146L3.5841 7.27933C3.53097 7.27654 3.48904 7.22904 3.49183 7.17595C3.49463 7.12287 3.54216 7.08096 3.59528 7.08375L8.49649 7.41903C8.49649 7.41903 8.51606 7.42182 8.52445 7.42462L9.11159 7.65372L9.18428 7.15081C9.18987 7.12008 9.20945 7.09214 9.2374 7.07817L9.86369 6.77363C9.91122 6.74848 9.96993 6.77083 9.99509 6.81833H9.99789Z" fill="white"/>
<path fill-rule="evenodd" clip-rule="evenodd" d="M5.3066 6.36546C5.33456 6.32076 5.39607 6.30679 5.4408 6.33473L8.41844 8.21226C8.45478 8.23461 8.47435 8.28211 8.46037 8.32402C8.44639 8.36593 8.40725 8.39387 8.36252 8.39387L5.21713 8.27093C5.16401 8.27093 5.12207 8.22343 5.12207 8.17035C5.12207 8.11726 5.1696 8.07256 5.22272 8.07536L8.00185 8.18432L5.33456 6.50236C5.28982 6.47442 5.27584 6.41296 5.3038 6.36825L5.3066 6.36546Z" fill="white"/>
</g>
</svg>
