<svg width="14" height="14" viewBox="0 0 14 14" fill="none" xmlns="http://www.w3.org/2000/svg">
<path d="M6.99999 7.63398C7.18879 7.63398 7.35279 7.56438 7.49199 7.42518C7.63065 7.28652 7.69999 7.12278 7.69999 6.93398V4.36678C7.69999 4.17798 7.63065 4.01692 7.49199 3.88358C7.35279 3.75025 7.18879 3.68358 6.99999 3.68358C6.81119 3.68358 6.64719 3.75318 6.50799 3.89238C6.36932 4.03105 6.29999 4.19478 6.29999 4.38358V6.95078C6.29999 7.13958 6.36932 7.30065 6.50799 7.43398C6.64719 7.56732 6.81119 7.63398 6.99999 7.63398ZM6.99999 10.3508C7.18879 10.3508 7.35279 10.2868 7.49199 10.1588C7.63065 10.0308 7.69999 9.86118 7.69999 9.64998C7.69999 9.46118 7.63065 9.29745 7.49199 9.15878C7.35279 9.02012 7.18879 8.95078 6.99999 8.95078C6.81119 8.95078 6.64719 9.02012 6.50799 9.15878C6.36932 9.29745 6.29999 9.46118 6.29999 9.64998C6.29999 9.86118 6.36932 10.0308 6.50799 10.1588C6.64719 10.2868 6.81119 10.3508 6.99999 10.3508ZM6.99999 13.6668C6.07785 13.6668 5.21119 13.4919 4.39999 13.142C3.58879 12.7921 2.88319 12.3172 2.28319 11.7172C1.68319 11.1172 1.20825 10.4116 0.858388 9.60038C0.508521 8.78918 0.333588 7.92252 0.333588 7.00038C0.333588 6.07825 0.508521 5.21158 0.858388 4.40038C1.20825 3.58918 1.68319 2.88358 2.28319 2.28358C2.88319 1.68358 3.58879 1.20865 4.39999 0.858784C5.21119 0.508918 6.07785 0.333984 6.99999 0.333984C7.92212 0.333984 8.78879 0.508918 9.59999 0.858784C10.4112 1.20865 11.1168 1.68358 11.7168 2.28358C12.3168 2.88358 12.7917 3.58918 13.1416 4.40038C13.4915 5.21158 13.6664 6.07825 13.6664 7.00038C13.6664 7.92252 13.4915 8.78918 13.1416 9.60038C12.7917 10.4116 12.3168 11.1172 11.7168 11.7172C11.1168 12.3172 10.4112 12.7921 9.59999 13.142C8.78879 13.4919 7.92212 13.6668 6.99999 13.6668ZM6.99999 12.2668C8.45545 12.2668 9.69705 11.7529 10.7248 10.7252C11.7525 9.69745 12.2664 8.45585 12.2664 7.00038C12.2664 5.54492 11.7525 4.30332 10.7248 3.27558C9.69705 2.24785 8.45545 1.73398 6.99999 1.73398C5.54452 1.73398 4.30292 2.24785 3.27519 3.27558C2.24745 4.30332 1.73359 5.54492 1.73359 7.00038C1.73359 8.45585 2.24745 9.69745 3.27519 10.7252C4.30292 11.7529 5.54452 12.2668 6.99999 12.2668Z" fill="#FF3B30"/>
</svg>
