<svg width="24" height="24" viewBox="0 0 24 24" fill="none" xmlns="http://www.w3.org/2000/svg">
<rect width="24" height="24" rx="5" fill="#7C7C7C"/>
<path d="M5.83523 7.77273L7.9446 14.4034H8.02557L10.1392 7.77273H12.1847L9.17614 16.5H6.7983L3.78551 7.77273H5.83523ZM13.1839 16.5V15.1705L16.2905 12.294C16.5547 12.0384 16.7763 11.8082 16.9553 11.6037C17.1371 11.3991 17.2749 11.1989 17.3686 11.0028C17.4624 10.804 17.5092 10.5895 17.5092 10.3594C17.5092 10.1037 17.451 9.88352 17.3345 9.69886C17.218 9.51136 17.0589 9.3679 16.8572 9.26847C16.6555 9.16619 16.4268 9.11506 16.1712 9.11506C15.9041 9.11506 15.6712 9.16903 15.4723 9.27699C15.2734 9.38494 15.12 9.53977 15.0121 9.74148C14.9041 9.94318 14.8501 10.1832 14.8501 10.4616H13.0987C13.0987 9.89062 13.228 9.39489 13.4865 8.97443C13.745 8.55398 14.1072 8.22869 14.5732 7.99858C15.0391 7.76847 15.576 7.65341 16.1839 7.65341C16.8089 7.65341 17.353 7.7642 17.8161 7.9858C18.282 8.20455 18.6442 8.50852 18.9027 8.89773C19.1612 9.28693 19.2905 9.73295 19.2905 10.2358C19.2905 10.5653 19.2251 10.8906 19.0945 11.2116C18.9666 11.5327 18.7379 11.8892 18.4084 12.2812C18.0788 12.6705 17.6143 13.1378 17.0149 13.6832L15.7408 14.9318V14.9915H19.4055V16.5H13.1839Z" fill="white"/>
</svg>
