<svg width="24" height="24" viewBox="0 0 24 24" fill="none" xmlns="http://www.w3.org/2000/svg">
<rect width="24" height="24" rx="5" fill="#FF9632"/>
<path d="M5.83523 7.77273L7.9446 14.4034H8.02557L10.1392 7.77273H12.1847L9.17614 16.5H6.7983L3.78551 7.77273H5.83523ZM16.4098 16.6193C15.7734 16.6193 15.2067 16.5099 14.7095 16.2912C14.2152 16.0696 13.8246 15.7656 13.5376 15.3793C13.2536 14.9901 13.1072 14.5412 13.0987 14.0327H14.9567C14.968 14.2457 15.0376 14.4332 15.1655 14.5952C15.2962 14.7543 15.4695 14.8778 15.6854 14.9659C15.9013 15.054 16.1442 15.098 16.4141 15.098C16.6953 15.098 16.9439 15.0483 17.1598 14.9489C17.3757 14.8494 17.5447 14.7116 17.6669 14.5355C17.7891 14.3594 17.8501 14.1562 17.8501 13.9261C17.8501 13.6932 17.7848 13.4872 17.6541 13.3082C17.5263 13.1264 17.3416 12.9844 17.1001 12.8821C16.8615 12.7798 16.5774 12.7287 16.2479 12.7287H15.4339V11.3736H16.2479C16.5263 11.3736 16.772 11.3253 16.9851 11.2287C17.201 11.1321 17.3686 10.9986 17.4879 10.8281C17.6072 10.6548 17.6669 10.4531 17.6669 10.223C17.6669 10.0043 17.6143 9.8125 17.5092 9.64773C17.407 9.48011 17.2621 9.34943 17.0746 9.25568C16.8899 9.16193 16.674 9.11506 16.4268 9.11506C16.1768 9.11506 15.9482 9.16051 15.7408 9.25142C15.5334 9.33949 15.3672 9.46591 15.2422 9.63068C15.1172 9.79545 15.0504 9.98864 15.0419 10.2102H13.2734C13.282 9.70739 13.4254 9.2642 13.7038 8.88068C13.9822 8.49716 14.3572 8.19744 14.8288 7.98153C15.3033 7.76278 15.8388 7.65341 16.4354 7.65341C17.0376 7.65341 17.5646 7.76278 18.0163 7.98153C18.468 8.20028 18.8189 8.49574 19.0689 8.8679C19.3217 9.23722 19.4467 9.65199 19.4439 10.1122C19.4467 10.6009 19.2947 11.0085 18.9879 11.3352C18.6839 11.6619 18.2876 11.8693 17.799 11.9574V12.0256C18.4411 12.108 18.9297 12.331 19.2649 12.6946C19.603 13.0554 19.7706 13.5071 19.7678 14.0497C19.7706 14.5469 19.6271 14.9886 19.3374 15.375C19.0504 15.7614 18.6541 16.0653 18.1484 16.2869C17.6428 16.5085 17.0632 16.6193 16.4098 16.6193Z" fill="white"/>
</svg>
