<svg width="20" height="17" viewBox="0 0 20 17" fill="none" xmlns="http://www.w3.org/2000/svg">
<circle cx="8.5" cy="8.5" r="8" stroke="#646464"/>
<path d="M7 13V12.5868L8.02299 12.3156V7.44763L7 7.31851V7.02152L8.68966 6.54376H8.97701V12.3156L10 12.5868V13H7ZM8.45977 5.51076C8.26054 5.51076 8.09579 5.43759 7.96552 5.29125C7.83525 5.14491 7.77011 4.96413 7.77011 4.74892C7.77011 4.52511 7.83525 4.34433 7.96552 4.2066C8.09579 4.06887 8.26054 4 8.45977 4C8.659 4 8.82375 4.06887 8.95402 4.2066C9.08429 4.34433 9.14943 4.52511 9.14943 4.74892C9.14943 4.96413 9.08429 5.14491 8.95402 5.29125C8.82375 5.43759 8.659 5.51076 8.45977 5.51076Z" fill="#646464"/>
</svg>
