<svg width="20" height="20" viewBox="0 0 20 20" fill="none" xmlns="http://www.w3.org/2000/svg">
<g clip-path="url(#clip0_44_226)">
<path fill-rule="evenodd" clip-rule="evenodd" d="M11.4085 0.511391C9.25355 0.219475 7.07 0.680368 5.19601 1.81697C4.12207 2.46834 3.18523 3.31993 2.42595 4.31959V2.55586C2.42595 2.00358 1.97824 1.55586 1.42595 1.55586C0.873668 1.55586 0.425953 2.00358 0.425953 2.55586V7.14414C0.425953 7.69642 0.873668 8.14414 1.42595 8.14414H1.94894C1.96432 8.14449 1.97967 8.14449 1.99498 8.14414H5.79632C6.34861 8.14414 6.79632 7.69642 6.79632 7.14414C6.79632 6.59185 6.34861 6.14414 5.79632 6.14414H3.59397C4.26677 5.06965 5.16965 4.17207 6.23318 3.52702C7.72093 2.62468 9.4444 2.2636 11.14 2.49329C12.836 2.72304 14.4211 3.53278 15.6482 4.80852C16.876 6.08505 17.6761 7.757 17.9161 9.5695C17.9885 10.117 18.4911 10.5021 19.0387 10.4296C19.5862 10.3572 19.9713 9.85456 19.8988 9.30705C19.6043 7.08236 18.6205 5.01359 17.0897 3.42207C15.5581 1.82977 13.5629 0.80325 11.4085 0.511391ZM8.92492 19.8219C11.0798 20.1139 13.2634 19.653 15.1374 18.5164C16.2113 17.865 17.1481 17.0134 17.9074 16.0137V17.7775C17.9074 18.3298 18.3551 18.7775 18.9074 18.7775C19.4597 18.7775 19.9074 18.3298 19.9074 17.7775V13.1892C19.9074 12.6369 19.4597 12.1892 18.9074 12.1892H18.3844C18.3691 12.1888 18.3537 12.1888 18.3384 12.1892H14.5371C13.9848 12.1892 13.5371 12.6369 13.5371 13.1892C13.5371 13.7415 13.9848 14.1892 14.5371 14.1892H16.7394C16.0666 15.2637 15.1637 16.1613 14.1002 16.8063C12.6124 17.7087 10.889 18.0697 9.1934 17.84C7.4974 17.6103 5.91224 16.8006 4.68516 15.5248C3.45733 14.2483 2.65723 12.5763 2.4173 10.7638C2.34483 10.2163 1.84223 9.83123 1.29472 9.90371C0.747216 9.97618 0.362124 10.4788 0.4346 11.0263C0.729083 13.251 1.71291 15.3197 3.24372 16.9113C4.77528 18.5036 6.77043 19.5301 8.92492 19.8219Z" fill="white"/>
</g>
<defs>
<clipPath id="clip0_44_226">
<rect width="20" height="20" fill="white"/>
</clipPath>
</defs>
</svg>
