<svg width="116" height="36" viewBox="0 0 116 36" fill="none" xmlns="http://www.w3.org/2000/svg">
<rect width="116" height="36" rx="18" fill="#6E51F7"/>
<path d="M31.8782 23.8557C32.0613 24.0388 32.0613 24.3356 31.8782 24.5187L30.1331 26.2638C27.8182 28.5787 24.0514 28.5788 21.7363 26.2638C19.4213 23.9487 19.4213 20.1819 21.7363 17.8669L23.4814 16.1218C23.6644 15.9387 23.9612 15.9387 24.1443 16.1218L25.6911 17.6686C25.8741 17.8516 25.8741 18.1484 25.6911 18.3315L23.946 20.0766C22.8494 21.1732 22.8494 22.9574 23.946 24.054C25.0425 25.1506 26.8268 25.1506 27.9235 24.054L29.6685 22.309C29.8516 22.1259 30.1484 22.1259 30.3315 22.309L31.8782 23.8557ZM29.6685 13.6911C29.8516 13.8741 30.1484 13.8741 30.3315 13.6911L32.0765 11.946C33.1731 10.8493 34.9574 10.8494 36.054 11.946C37.1506 13.0426 37.1506 14.8269 36.054 15.9235L34.3089 17.6685C34.1259 17.8516 34.1259 18.1484 34.3089 18.3315L35.8557 19.8783C36.0387 20.0613 36.3355 20.0613 36.5186 19.8783L38.2637 18.1331C40.5788 15.8181 40.5788 12.0513 38.2637 9.73628C35.9487 7.42128 32.1819 7.42128 29.8669 9.73628L28.1218 11.4814C27.9387 11.6644 27.9387 11.9612 28.1218 12.1443L29.6685 13.6911ZM38.8415 27.7254L39.7253 26.8416C40.0915 26.4754 40.0915 25.8818 39.7253 25.5157L31.1048 16.8952L22.4843 8.2746C22.1182 7.90847 21.5246 7.90847 21.1585 8.2746L20.2746 9.1585C19.9085 9.52464 19.9085 10.1182 20.2746 10.4843L28.8951 19.1049L37.5156 27.7254C37.8818 28.0915 38.4754 28.0915 38.8415 27.7254Z" fill="white"/>
<path d="M46.8849 23.5V13.3182H50.902C51.6709 13.3182 52.3272 13.4557 52.8707 13.7308C53.4176 14.0026 53.8336 14.3887 54.1186 14.8892C54.407 15.3864 54.5511 15.9714 54.5511 16.6442C54.5511 17.3203 54.4053 17.902 54.1136 18.3892C53.822 18.8731 53.3994 19.2443 52.8459 19.5028C52.2957 19.7614 51.6295 19.8906 50.8473 19.8906H48.1577V18.1605H50.4993C50.9103 18.1605 51.2517 18.1042 51.5234 17.9915C51.7952 17.8788 51.9974 17.7098 52.13 17.4844C52.2659 17.259 52.3338 16.9789 52.3338 16.6442C52.3338 16.3061 52.2659 16.0211 52.13 15.7891C51.9974 15.5571 51.7936 15.3814 51.5185 15.2621C51.2467 15.1394 50.9036 15.0781 50.4893 15.0781H49.0376V23.5H46.8849ZM52.3835 18.8665L54.9141 23.5H52.5376L50.0618 18.8665H52.3835ZM59.3897 23.6491C58.6042 23.6491 57.9281 23.4901 57.3613 23.1719C56.7979 22.8504 56.3637 22.3963 56.0588 21.8097C55.7538 21.2197 55.6014 20.522 55.6014 19.7166C55.6014 18.9311 55.7538 18.2417 56.0588 17.6484C56.3637 17.0552 56.7929 16.5928 57.3464 16.2614C57.9032 15.9299 58.5562 15.7642 59.3052 15.7642C59.809 15.7642 60.278 15.8454 60.7122 16.0078C61.1497 16.1669 61.5308 16.4072 61.8556 16.7287C62.1838 17.0502 62.439 17.4545 62.6213 17.9418C62.8036 18.4257 62.8947 18.9924 62.8947 19.642V20.2237H56.4466V18.9112H60.9011C60.9011 18.6063 60.8348 18.3362 60.7022 18.1009C60.5697 17.8655 60.3857 17.6816 60.1504 17.549C59.9184 17.4131 59.6483 17.3452 59.34 17.3452C59.0185 17.3452 58.7335 17.4197 58.4849 17.5689C58.2396 17.7147 58.0474 17.9119 57.9082 18.1605C57.769 18.4058 57.6977 18.6792 57.6944 18.9808V20.2287C57.6944 20.6065 57.764 20.933 57.9032 21.2081C58.0458 21.4832 58.2463 21.6953 58.5048 21.8445C58.7633 21.9936 59.0699 22.0682 59.4245 22.0682C59.6599 22.0682 59.8753 22.035 60.0708 21.9688C60.2664 21.9025 60.4338 21.803 60.573 21.6705C60.7122 21.5379 60.8182 21.3755 60.8912 21.1832L62.85 21.3125C62.7505 21.7831 62.5467 22.1941 62.2385 22.5455C61.9335 22.8935 61.5391 23.1652 61.0552 23.3608C60.5746 23.553 60.0195 23.6491 59.3897 23.6491ZM71.1911 15.8636L68.5213 23.5H66.1349L63.4652 15.8636H65.7024L67.2884 21.3274H67.3679L68.9489 15.8636H71.1911ZM75.479 23.6491C74.7068 23.6491 74.0389 23.4851 73.4755 23.157C72.9154 22.8255 72.4828 22.3648 72.1779 21.7749C71.873 21.1816 71.7205 20.4938 71.7205 19.7116C71.7205 18.9228 71.873 18.2334 72.1779 17.6435C72.4828 17.0502 72.9154 16.5895 73.4755 16.2614C74.0389 15.9299 74.7068 15.7642 75.479 15.7642C76.2513 15.7642 76.9175 15.9299 77.4776 16.2614C78.0411 16.5895 78.4753 17.0502 78.7802 17.6435C79.0851 18.2334 79.2376 18.9228 79.2376 19.7116C79.2376 20.4938 79.0851 21.1816 78.7802 21.7749C78.4753 22.3648 78.0411 22.8255 77.4776 23.157C76.9175 23.4851 76.2513 23.6491 75.479 23.6491ZM75.489 22.0085C75.8403 22.0085 76.1336 21.9091 76.369 21.7102C76.6043 21.508 76.7816 21.233 76.9009 20.8849C77.0236 20.5369 77.0849 20.1409 77.0849 19.6967C77.0849 19.2526 77.0236 18.8565 76.9009 18.5085C76.7816 18.1605 76.6043 17.8854 76.369 17.6832C76.1336 17.4811 75.8403 17.38 75.489 17.38C75.1344 17.38 74.8361 17.4811 74.5941 17.6832C74.3555 17.8854 74.1748 18.1605 74.0522 18.5085C73.9329 18.8565 73.8732 19.2526 73.8732 19.6967C73.8732 20.1409 73.9329 20.5369 74.0522 20.8849C74.1748 21.233 74.3555 21.508 74.5941 21.7102C74.8361 21.9091 75.1344 22.0085 75.489 22.0085ZM82.5337 21.3026L82.5387 18.7621H82.8469L85.293 15.8636H87.7241L84.4379 19.7017H83.9357L82.5337 21.3026ZM80.6147 23.5V13.3182H82.7326V23.5H80.6147ZM85.3874 23.5L83.1403 20.174L84.5522 18.6776L87.8683 23.5H85.3874ZM91.9288 23.6491C91.1433 23.6491 90.4672 23.4901 89.9004 23.1719C89.3369 22.8504 88.9028 22.3963 88.5978 21.8097C88.2929 21.2197 88.1404 20.522 88.1404 19.7166C88.1404 18.9311 88.2929 18.2417 88.5978 17.6484C88.9028 17.0552 89.332 16.5928 89.8855 16.2614C90.4423 15.9299 91.0952 15.7642 91.8443 15.7642C92.3481 15.7642 92.8171 15.8454 93.2512 16.0078C93.6887 16.1669 94.0699 16.4072 94.3947 16.7287C94.7228 17.0502 94.978 17.4545 95.1603 17.9418C95.3426 18.4257 95.4338 18.9924 95.4338 19.642V20.2237H88.9856V18.9112H93.4402C93.4402 18.6063 93.3739 18.3362 93.2413 18.1009C93.1087 17.8655 92.9248 17.6816 92.6895 17.549C92.4574 17.4131 92.1873 17.3452 91.8791 17.3452C91.5576 17.3452 91.2725 17.4197 91.024 17.5689C90.7787 17.7147 90.5865 17.9119 90.4473 18.1605C90.3081 18.4058 90.2368 18.6792 90.2335 18.9808V20.2287C90.2335 20.6065 90.3031 20.933 90.4423 21.2081C90.5848 21.4832 90.7853 21.6953 91.0439 21.8445C91.3024 21.9936 91.609 22.0682 91.9636 22.0682C92.1989 22.0682 92.4144 22.035 92.6099 21.9688C92.8055 21.9025 92.9728 21.803 93.112 21.6705C93.2512 21.5379 93.3573 21.3755 93.4302 21.1832L95.389 21.3125C95.2896 21.7831 95.0858 22.1941 94.7775 22.5455C94.4726 22.8935 94.0782 23.1652 93.5943 23.3608C93.1137 23.553 92.5585 23.6491 91.9288 23.6491Z" fill="white"/>
</svg>
