<svg width="170" height="170" viewBox="0 0 170 170" fill="none" xmlns="http://www.w3.org/2000/svg">
<path d="M85.14 169.61C131.902 169.61 169.81 131.702 169.81 84.94C169.81 38.1781 131.902 0.270004 85.14 0.270004C38.378 0.270004 0.469971 38.1781 0.469971 84.94C0.469971 131.702 38.378 169.61 85.14 169.61Z" fill="#FFC500"/>
<path d="M85.14 151.5C121.9 151.5 151.7 121.7 151.7 84.94C151.7 48.1799 121.9 18.38 85.14 18.38C48.3799 18.38 18.58 48.1799 18.58 84.94C18.58 121.7 48.3799 151.5 85.14 151.5Z" fill="#E08200"/>
<path d="M122.19 82.37H111L117.56 57.87C117.98 56.3 117.05 55.02 115.48 55.02C113.91 55.02 112.29 56.29 111.87 57.87L105.31 82.37H94.56L88.09 58.22C88.09 58.22 88.09 58.22 88.09 58.21L88 57.87H87.99C87.58 56.75 86.47 55.95 85.15 55.95C83.83 55.95 82.71 56.75 82.31 57.87V57.91C82.26 58.03 82.23 58.15 82.2 58.28L75.74 82.37H64.99L58.43 57.87C58.01 56.3 56.39 55.02 54.82 55.02C53.25 55.02 52.31 56.29 52.74 57.87L59.3 82.37H48.11C46.54 82.37 45.26 83.64 45.26 85.22C45.26 86.8 46.53 88.07 48.11 88.07H60.82L67.37 112.53C67.63 113.86 68.87 114.86 70.36 114.86C71.85 114.86 73.07 113.87 73.34 112.57L79.9 88.07H90.39L96.94 112.53C97.2 113.86 98.44 114.86 99.93 114.86C101.42 114.86 102.64 113.87 102.91 112.57L109.47 88.07H122.18C123.75 88.07 125.03 86.8 125.03 85.22C125.03 83.64 123.76 82.37 122.18 82.37H122.19ZM70.35 102.43L66.5 88.06H74.2L70.35 102.43ZM81.42 82.37L85.14 68.48L88.86 82.37H81.42ZM99.93 102.43L96.08 88.06H103.78L99.93 102.43Z" fill="#FFC500"/>
</svg>
