<svg width="171" height="170" viewBox="0 0 171 170" fill="none" xmlns="http://www.w3.org/2000/svg">
<path d="M85.47 169.61C132.232 169.61 170.14 131.702 170.14 84.94C170.14 38.1781 132.232 0.270004 85.47 0.270004C38.7081 0.270004 0.800049 38.1781 0.800049 84.94C0.800049 131.702 38.7081 169.61 85.47 169.61Z" fill="#FFD541"/>
<path d="M85.47 5.59C96.18 5.59 106.58 7.69001 116.36 11.82C125.81 15.82 134.3 21.54 141.59 28.83C148.88 36.12 154.6 44.61 158.6 54.06C162.74 63.84 164.83 74.23 164.83 84.95C164.83 95.67 162.73 106.06 158.6 115.84C154.6 125.29 148.88 133.78 141.59 141.07C134.3 148.36 125.81 154.08 116.36 158.08C106.58 162.22 96.19 164.31 85.47 164.31C74.75 164.31 64.3601 162.21 54.5801 158.08C45.1301 154.08 36.64 148.36 29.35 141.07C22.0601 133.78 16.34 125.29 12.34 115.84C8.20005 106.06 6.11005 95.67 6.11005 84.95C6.11005 74.23 8.21005 63.84 12.34 54.06C16.34 44.61 22.0601 36.12 29.35 28.83C36.64 21.54 45.1301 15.82 54.5801 11.82C64.3601 7.68001 74.75 5.59 85.47 5.59ZM85.47 0.279999C38.71 0.279999 0.800049 38.19 0.800049 84.95C0.800049 131.71 38.71 169.62 85.47 169.62C132.23 169.62 170.14 131.71 170.14 84.95C170.14 38.19 132.23 0.279999 85.47 0.279999Z" fill="#231815"/>
<path d="M122.51 82.37H111.32L117.88 57.87C118.3 56.3 117.37 55.02 115.8 55.02C114.23 55.02 112.61 56.29 112.19 57.87L105.63 82.37H94.88L88.41 58.22C88.41 58.22 88.41 58.22 88.41 58.21L88.32 57.87H88.31C87.9 56.75 86.79 55.95 85.47 55.95C84.15 55.95 83.03 56.75 82.63 57.87V57.91C82.58 58.03 82.5499 58.15 82.52 58.28L76.06 82.37H65.31L58.75 57.87C58.33 56.3 56.71 55.02 55.14 55.02C53.57 55.02 52.63 56.29 53.06 57.87L59.62 82.37H48.43C46.86 82.37 45.58 83.64 45.58 85.22C45.58 86.8 46.85 88.07 48.43 88.07H61.14L67.69 112.53C67.95 113.86 69.19 114.86 70.68 114.86C72.17 114.86 73.39 113.87 73.66 112.57L80.22 88.07H90.71L97.26 112.53C97.52 113.86 98.76 114.86 100.25 114.86C101.74 114.86 102.96 113.87 103.23 112.57L109.79 88.07H122.5C124.07 88.07 125.35 86.8 125.35 85.22C125.35 83.64 124.08 82.37 122.5 82.37H122.51ZM70.67 102.43L66.82 88.06H74.52L70.67 102.43ZM81.74 82.37L85.46 68.48L89.18 82.37H81.74ZM100.25 102.43L96.4 88.06H104.1L100.25 102.43Z" fill="#231815"/>
<path d="M85.47 23.69C101.83 23.69 117.21 30.06 128.78 41.63C140.35 53.2 146.72 68.58 146.72 84.94C146.72 101.3 140.35 116.68 128.78 128.25C117.21 139.82 101.83 146.19 85.47 146.19C69.11 146.19 53.73 139.82 42.16 128.25C30.59 116.68 24.22 101.3 24.22 84.94C24.22 68.58 30.59 53.2 42.16 41.63C53.73 30.06 69.11 23.69 85.47 23.69ZM85.47 18.38C48.71 18.38 18.91 48.18 18.91 84.94C18.91 121.7 48.71 151.5 85.47 151.5C122.23 151.5 152.03 121.7 152.03 84.94C152.03 48.18 122.23 18.38 85.47 18.38Z" fill="#231815"/>
</svg>
