<svg width="10" height="10" viewBox="0 0 10 10" fill="none" xmlns="http://www.w3.org/2000/svg">
<path d="M1.43275 0.851154L4.95635 4.5939C5.06408 4.70778 5.11793 4.85392 5.11793 5.00018C5.11793 5.14637 5.06405 5.29246 4.95635 5.40647L1.43275 9.14921C1.20819 9.38559 0.834161 9.39544 0.597285 9.17137C0.358734 8.94668 0.350313 8.57105 0.574201 8.33566L3.73583 4.9992L0.574201 1.66274C0.350313 1.42734 0.358685 1.0543 0.597285 0.828008C0.834161 0.604182 1.20819 0.614031 1.43275 0.851154Z" fill="#6B7280"/>
<path d="M6.13783 0.851154L9.66143 4.5939C9.76916 4.70778 9.82301 4.85392 9.82301 5.00018C9.82301 5.14637 9.76913 5.29246 9.66143 5.40647L6.13783 9.14921C5.91327 9.38559 5.53924 9.39544 5.30236 9.17137C5.06381 8.94668 5.05539 8.57105 5.27928 8.33566L8.44091 4.9992L5.27928 1.66274C5.05539 1.42734 5.06376 1.0543 5.30236 0.828008C5.53924 0.604182 5.91327 0.614031 6.13783 0.851154Z" fill="#6B7280"/>
</svg>
