<svg width="16" height="17" viewBox="0 0 16 17" fill="none" xmlns="http://www.w3.org/2000/svg">
<circle cx="8" cy="8.5" r="7.5" fill="white" stroke="#111111"/>
<path d="M11 9.20312H8.5V11.7031C8.5 11.9781 8.275 12.2031 8 12.2031C7.725 12.2031 7.5 11.9781 7.5 11.7031V9.20312H5C4.725 9.20312 4.5 8.97813 4.5 8.70312C4.5 8.42812 4.725 8.20312 5 8.20312H7.5V5.70312C7.5 5.42812 7.725 5.20312 8 5.20312C8.275 5.20312 8.5 5.42812 8.5 5.70312V8.20312H11C11.275 8.20312 11.5 8.42812 11.5 8.70312C11.5 8.97813 11.275 9.20312 11 9.20312Z" fill="#111111"/>
</svg>
