<svg width="12" height="12" viewBox="0 0 12 12" fill="none" xmlns="http://www.w3.org/2000/svg">
<circle cx="6" cy="6" r="5.5" stroke="white"/>
<path d="M5.39425 7.47228C5.39876 7.06405 5.44162 6.73391 5.52284 6.48184C5.60632 6.22753 5.72138 6.02454 5.86802 5.87285C6.01466 5.71893 6.21094 5.56724 6.45685 5.41778C6.67118 5.2884 6.84151 5.12779 6.96785 4.93595C7.09645 4.7441 7.16074 4.52326 7.16074 4.27342C7.16074 4.0615 7.10998 3.87635 7.00846 3.71797C6.90919 3.55736 6.7727 3.43356 6.59898 3.34656C6.42527 3.25956 6.2335 3.21606 6.02369 3.21606C5.83192 3.21606 5.65144 3.2551 5.48223 3.33317C5.31528 3.41125 5.17654 3.53282 5.06599 3.6979C4.95544 3.86074 4.89114 4.06597 4.8731 4.31358H4C4.01579 3.94105 4.11393 3.61871 4.29442 3.34656C4.47716 3.07218 4.71856 2.86249 5.01861 2.7175C5.32092 2.5725 5.65595 2.5 6.02369 2.5C6.41624 2.5 6.76142 2.57808 7.05922 2.73423C7.35928 2.88815 7.59052 3.10229 7.75296 3.37667C7.91765 3.65105 8 3.96112 8 4.30688C8 4.66826 7.91878 4.98168 7.75635 5.24713C7.59391 5.51259 7.35928 5.73901 7.05245 5.92639C6.84715 6.05131 6.68584 6.17957 6.56853 6.31119C6.45347 6.4428 6.36887 6.60006 6.31472 6.78298C6.26058 6.9659 6.23125 7.19567 6.22673 7.47228V7.51243H5.39425V7.47228ZM5.84095 9.5C5.7304 9.5 5.62662 9.47323 5.52961 9.41969C5.43486 9.36393 5.35928 9.2892 5.30288 9.19551C5.24873 9.10182 5.22279 9.00032 5.22504 8.89101C5.22279 8.78171 5.24873 8.68021 5.30288 8.58652C5.35928 8.49283 5.43486 8.41922 5.52961 8.36568C5.62662 8.30991 5.7304 8.28203 5.84095 8.28203C5.95149 8.28203 6.05415 8.30991 6.1489 8.36568C6.24365 8.41922 6.3181 8.49283 6.37225 8.58652C6.42865 8.68021 6.45685 8.78171 6.45685 8.89101C6.45685 9.00032 6.42865 9.10182 6.37225 9.19551C6.3181 9.2892 6.24365 9.36393 6.1489 9.41969C6.05415 9.47323 5.95149 9.5 5.84095 9.5Z" fill="white"/>
</svg>
