<svg width="24" height="24" viewBox="0 0 24 24" fill="none" xmlns="http://www.w3.org/2000/svg">
<path fill-rule="evenodd" clip-rule="evenodd" d="M17.8555 3.41718C18.3377 3.41718 18.7125 3.77671 18.7125 4.23915C18.7125 4.70163 18.3377 5.06113 17.8555 5.06113H4.5711V3.41699L17.8555 3.41718ZM19.1412 5.32467V9.36057C18.4761 9.12761 17.7543 9 17 9C13.6862 9 11 11.4624 11 14.5C11 15.3926 11.2319 16.2355 11.6436 16.9809H3.07132C2.47781 16.9809 2 16.5226 2 15.9534V14.1038H8.64221C9.22822 14.1038 9.71353 13.6383 9.71353 13.0762V9.78797C9.71353 9.22589 9.22822 8.7604 8.64221 8.7604H2V7C2 6.43073 2.47781 6.1 3.07132 6.1H18.0565C18.4744 6.05229 18.8478 5.64473 19.119 5.34888L19.1412 5.32467ZM8.39996 10C8.5261 10 8.59996 10.079 8.59996 10.2V12.8C8.59996 12.921 8.5261 13 8.39996 13H2V10H8.39996ZM6.49956 10.8156C6.14459 10.8156 5.85673 11.0916 5.85673 11.4322C5.85673 11.7726 6.14458 12.0488 6.49956 12.0488C6.85452 12.0488 7.14239 11.7728 7.14239 11.4322C7.14239 11.0917 6.85453 10.8156 6.49956 10.8156ZM19.9052 17.245H20.3938L23.016 19.8857C23.2695 20.1399 23.2695 20.5552 23.016 20.8093C22.7624 21.0635 22.348 21.0635 22.0945 20.8093L19.4661 18.1749V17.6851L19.2991 17.5116C18.4333 18.2554 17.2521 18.6398 15.9966 18.429C14.2773 18.1377 12.9044 16.6995 12.6941 14.9639C12.3725 12.3418 14.5742 10.135 17.1902 10.4574C18.9219 10.6681 20.3567 12.0443 20.6473 13.7675C20.8576 15.0259 20.4742 16.2098 19.732 17.0777L19.9052 17.245ZM13.9001 14.4556C13.9001 15.9991 15.1432 17.245 16.6831 17.245C18.223 17.245 19.4661 15.9991 19.4661 14.4556C19.4661 12.9121 18.223 11.6661 16.6831 11.6661C15.1432 11.6661 13.9001 12.9121 13.9001 14.4556Z" fill="white"/>
</svg>
