<svg width="22" height="22" viewBox="0 0 22 22" fill="none" xmlns="http://www.w3.org/2000/svg">
<path d="M17.8114 11.898C17.8481 11.6047 17.8756 11.3113 17.8756 10.9997C17.8756 10.688 17.8481 10.3947 17.8114 10.1013L19.7456 8.58884C19.9198 8.45134 19.9656 8.20384 19.8556 8.00217L18.0223 4.83051C17.9398 4.68384 17.7839 4.60134 17.6189 4.60134C17.5639 4.60134 17.5089 4.61051 17.4631 4.62884L15.1806 5.54551C14.7039 5.17884 14.1906 4.87634 13.6314 4.64717L13.2831 2.21801C13.2556 1.99801 13.0631 1.83301 12.8339 1.83301H9.16725C8.93809 1.83301 8.74559 1.99801 8.71809 2.21801L8.36975 4.64717C7.81059 4.87634 7.29725 5.18801 6.82059 5.54551L4.53809 4.62884C4.48309 4.61051 4.42809 4.60134 4.37309 4.60134C4.21725 4.60134 4.06142 4.68384 3.97892 4.83051L2.14559 8.00217C2.02642 8.20384 2.08142 8.45134 2.25559 8.58884L4.18975 10.1013C4.15309 10.3947 4.12559 10.6972 4.12559 10.9997C4.12559 11.3022 4.15309 11.6047 4.18975 11.898L2.25559 13.4105C2.08142 13.548 2.03559 13.7955 2.14559 13.9972L3.97892 17.1688C4.06142 17.3155 4.21725 17.398 4.38225 17.398C4.43725 17.398 4.49225 17.3888 4.53809 17.3705L6.82059 16.4538C7.29725 16.8205 7.81059 17.123 8.36975 17.3522L8.71809 19.7813C8.74559 20.0013 8.93809 20.1663 9.16725 20.1663H12.8339C13.0631 20.1663 13.2556 20.0013 13.2831 19.7813L13.6314 17.3522C14.1906 17.123 14.7039 16.8113 15.1806 16.4538L17.4631 17.3705C17.5181 17.3888 17.5731 17.398 17.6281 17.398C17.7839 17.398 17.9398 17.3155 18.0223 17.1688L19.8556 13.9972C19.9656 13.7955 19.9198 13.548 19.7456 13.4105L17.8114 11.898ZM15.9964 10.3305C16.0331 10.6147 16.0423 10.8072 16.0423 10.9997C16.0423 11.1922 16.0239 11.3938 15.9964 11.6688L15.8681 12.7047L16.6839 13.3463L17.6739 14.1163L17.0323 15.2255L15.8681 14.758L14.9148 14.373L14.0898 14.9963C13.6956 15.2897 13.3198 15.5097 12.9439 15.6655L11.9723 16.0597L11.8256 17.0955L11.6423 18.333H10.3589L10.1848 17.0955L10.0381 16.0597L9.06642 15.6655C8.67225 15.5005 8.30558 15.2897 7.93892 15.0147L7.10475 14.373L6.13309 14.7672L4.96892 15.2347L4.32725 14.1255L5.31725 13.3555L6.13309 12.7138L6.00475 11.678C5.97725 11.3938 5.95892 11.183 5.95892 10.9997C5.95892 10.8163 5.97725 10.6055 6.00475 10.3305L6.13309 9.29467L5.31725 8.65301L4.32725 7.88301L4.96892 6.77384L6.13309 7.24134L7.08642 7.62634L7.91142 7.00301C8.30559 6.70967 8.68142 6.48967 9.05725 6.33384L10.0289 5.93967L10.1756 4.90384L10.3589 3.66634H11.6331L11.8073 4.90384L11.9539 5.93967L12.9256 6.33384C13.3198 6.49884 13.6864 6.70967 14.0531 6.98467L14.8873 7.62634L15.8589 7.23217L17.0231 6.76467L17.6648 7.87384L16.6839 8.65301L15.8681 9.29467L15.9964 10.3305ZM11.0006 7.33301C8.97475 7.33301 7.33392 8.97384 7.33392 10.9997C7.33392 13.0255 8.97475 14.6663 11.0006 14.6663C13.0264 14.6663 14.6673 13.0255 14.6673 10.9997C14.6673 8.97384 13.0264 7.33301 11.0006 7.33301ZM11.0006 12.833C9.99225 12.833 9.16725 12.008 9.16725 10.9997C9.16725 9.99134 9.99225 9.16634 11.0006 9.16634C12.0089 9.16634 12.8339 9.99134 12.8339 10.9997C12.8339 12.008 12.0089 12.833 11.0006 12.833Z" fill="white"/>
</svg>
