<svg width="36" height="20" viewBox="0 0 36 20" fill="none" xmlns="http://www.w3.org/2000/svg">
<path d="M20.7978 6.88065L22.0921 5.73991L21.7411 4.05063L20.1176 3.5022L18.8232 4.64294L19.1743 6.33221L20.7978 6.88065ZM20.2932 4.37973L21.083 4.64294L21.2585 5.47661L20.6222 6.02504L19.8325 5.76184L19.6569 4.92817L20.2932 4.37973Z" fill="white"/>
<path d="M25.0753 3.73657L23.9874 4.55299L24.8038 5.64089L25.8916 4.82448L25.0753 3.73657Z" fill="white"/>
<path d="M14.3069 0L13.4897 1.57781L15.0675 2.39507L15.8848 0.817254L14.3069 0Z" fill="white"/>
<path d="M35.0577 12.8699L33.6756 9.90827C33.6318 9.82044 33.5659 9.75464 33.5001 9.7327L31.7451 8.8771L32.5348 6.22255C32.5786 6.06902 32.5128 5.89345 32.3812 5.78378C32.2496 5.69605 32.0521 5.69605 31.9205 5.80572L29.8583 7.53886C29.8144 7.58273 29.7706 7.62659 29.7486 7.67046L28.8053 9.7985L26.3482 10.9613L15.6421 7.16589L7.15196 1.94454C7.13002 1.94454 7.13002 1.92261 7.10808 1.92261C7.10808 1.92261 7.08614 1.92261 7.08614 1.90067C7.0642 1.90067 7.04226 1.90067 7.04226 1.87873H7.02033L2.61068 1.37415C2.52292 1.37415 2.43517 1.37415 2.36936 1.41802L0.285201 2.66854C0.263262 2.69047 0.241324 2.69047 0.219385 2.7124L0.197447 2.73434C0.175508 2.75627 0.175508 2.75627 0.15357 2.77821C0.15357 2.77821 0.15357 2.80014 0.131631 2.80014C0.109692 2.84401 0.087754 2.90981 0.087754 2.9757L0 4.42361C0 4.46748 0 4.48941 0.0219385 4.53328L1.00917 8.4164C1.00917 8.46026 1.03111 8.50413 1.05304 8.52606L4.40964 13.7036C4.45352 13.7694 4.49739 13.8133 4.56321 13.8353L10.5524 16.797C10.5963 16.8189 10.6402 16.8408 10.706 16.8408L16.783 17.1698H16.8049C16.8488 17.1698 16.8707 17.1698 16.9146 17.1479L16.9584 17.126L18.8452 19.5831C18.8672 19.605 18.8891 19.627 18.933 19.6489L19.3279 19.9341C19.3937 19.978 19.4814 19.9999 19.5472 19.9999C19.657 19.9999 19.7447 19.9561 19.8105 19.8903L20.5126 19.1882C20.5784 19.1224 20.6222 19.0347 20.6222 18.9249L20.6661 16.0949L26.041 14.4056C26.0629 14.4056 26.0849 14.3837 26.1068 14.3837L28.8053 12.7383L31.1527 13.572C31.1746 13.5939 31.2185 13.5939 31.2404 13.5939L33.5221 13.7695C33.5659 13.7695 33.6318 13.7694 33.6756 13.7474L34.7945 13.3526C34.9042 13.3087 34.97 13.2429 35.0139 13.1332C35.1235 13.0674 35.1016 12.9577 35.0577 12.8699ZM23.6059 10.8077L21.1487 10.6322L18.5819 9.03073L23.6059 10.8077ZM19.5472 10.5225L12.856 10.0618L12.3076 9.272L15.4447 7.95569L19.5472 10.5225ZM12.4392 10.8077L13.8432 12.826L12.0881 11.8607L10.2672 10.676L12.4392 10.8077ZM10.7718 9.9302L11.5836 9.57917L11.8687 9.996L10.7718 9.9302ZM14.633 7.45113L11.8468 8.63583L8.3147 3.54607L14.633 7.45113ZM11.1448 8.9429L9.19224 9.77657L7.48103 7.14396C7.48103 7.14396 7.48103 7.12202 7.4591 7.12202L5.33105 4.29201L6.8887 2.84401L11.1448 8.9429ZM2.61068 2.14203L6.07697 2.53684L4.73872 3.78734L2.43517 2.47104C2.36936 2.42717 2.28161 2.40524 2.19385 2.42717H2.14998L2.61068 2.14203ZM10.8157 16.073L5.00198 13.199L1.73314 8.17513L0.767848 4.37974L0.811725 3.34858L2.14998 3.19504L4.62902 4.62101L6.84482 7.56079L8.81928 10.5664C8.84122 10.6102 8.8851 10.6541 8.92898 10.676L11.6932 12.4751C11.6932 12.4751 11.7152 12.4751 11.7152 12.497L14.6111 14.0985L16.3661 16.3801L10.8157 16.073ZM19.8763 18.7714L19.5253 19.1443L19.4375 19.0785L17.7482 16.9066L19.9202 16.2704L19.8763 18.7714ZM17.2437 16.2484L15.5325 14.0327L23.6059 14.3398L17.2437 16.2484ZM15.0937 13.2648L13.4264 10.8735L20.9293 11.3781L24.5273 13.6378L15.0937 13.2648ZM25.9313 13.6158L22.5308 11.4878L26.2824 11.7511L27.9497 12.4092L25.9313 13.6158ZM28.4762 11.7949L27.3354 11.3342L28.6297 10.7418L28.4762 11.7949ZM30.4507 8.0873L31.4598 7.23169L30.9991 8.8113L29.9022 9.3378L30.4507 8.0873ZM33.544 13.0455L31.394 12.8699L29.2221 12.1021L29.4853 10.3909L31.3282 9.51337L33.0833 10.369L34.2241 12.826L33.544 13.0455Z" fill="white"/>
</svg>
