<svg width="16" height="16" viewBox="0 0 16 16" fill="none" xmlns="http://www.w3.org/2000/svg">
<rect width="16" height="16" rx="2" fill="#F45477"/>
<path d="M4.43393 2.5C4.67547 2.5 4.90156 2.6188 5.03858 2.81772L7.91999 7.00074C7.93814 7.02708 7.96809 7.04282 8.00008 7.04282C8.03198 7.04282 8.06186 7.02717 8.08002 7.00094L10.9776 2.81719C11.1152 2.61853 11.3415 2.5 11.5831 2.5C12.1794 2.5 12.5286 3.17163 12.186 3.65971L9.54272 7.42549C9.30071 7.77027 9.30071 8.22973 9.54272 8.57451L12.184 12.3374C12.5274 12.8267 12.1774 13.5 11.5796 13.5C11.3398 13.5 11.115 13.3836 10.9766 13.1878L8.08047 9.09001C8.062 9.06388 8.032 9.04834 8 9.04834C7.968 9.04834 7.938 9.06388 7.91953 9.09001L5.02076 13.1915C4.88402 13.385 4.66185 13.5 4.42493 13.5C3.83012 13.5 3.48525 12.8265 3.83295 12.3439L6.54143 8.58456C6.79296 8.23544 6.79296 7.76456 6.54143 7.41544L3.83821 3.66342C3.48831 3.17777 3.83536 2.5 4.43393 2.5Z" fill="white"/>
</svg>
