<svg width="14" height="14" viewBox="0 0 14 14" fill="none" xmlns="http://www.w3.org/2000/svg">
<path d="M4.60453 10.3333H8.73253C8.31919 12.5153 7.49186 14 6.66853 14C5.87053 14 5.06853 12.604 4.64319 10.5306L4.60453 10.3346V10.3333ZM0.712528 10.334H3.58319C3.82586 11.722 4.23853 12.9033 4.77786 13.7293C3.08288 13.2263 1.65616 12.0723 0.809861 10.52L0.712528 10.334ZM9.75453 10.334H12.6245C12.214 11.1469 11.6417 11.8674 10.9428 12.4513C10.2438 13.0352 9.43292 13.4701 8.55986 13.7293C9.06319 12.9573 9.45586 11.8773 9.70319 10.6086L9.75453 10.334ZM9.95586 6.00064H13.2025C13.4276 7.1084 13.3687 8.25512 13.0312 9.33397H9.89519C9.9973 8.37222 10.0263 7.4041 9.98186 6.43797L9.95519 5.99997L9.95586 6.00064ZM0.135194 5.99997H3.38186C3.31212 6.98126 3.31947 7.9665 3.40386 8.94664L3.44186 9.3333H0.305861C-0.0318354 8.25451 -0.0910061 7.10779 0.133861 5.99997H0.135194ZM4.38653 5.99997H8.95253C9.02868 6.9822 9.02043 7.96915 8.92786 8.94997L8.88653 9.3333H4.45119C4.33467 8.33509 4.30523 7.32862 4.36319 6.3253L4.38653 5.99997H8.95253H4.38519H4.38653ZM8.63186 1.05064L8.55986 0.937302C9.55071 1.23156 10.4598 1.75158 11.2158 2.45651C11.9717 3.16144 12.5539 4.03206 12.9165 4.99997H9.85653C9.64586 3.3893 9.21853 2.0053 8.63119 1.0513L8.63186 1.05064ZM4.69719 0.961969L4.77853 0.937302C4.19053 1.83797 3.75386 3.1573 3.52186 4.70664L3.48053 4.99997H0.421861C0.779518 4.04552 1.35068 3.18549 2.09168 2.48562C2.83268 1.78576 3.7239 1.26459 4.69719 0.961969ZM6.66853 0.667969C7.54786 0.667969 8.43253 2.36264 8.81119 4.78997L8.84253 4.99997H4.49453C4.85519 2.46064 5.76453 0.667969 6.66853 0.667969Z" fill="#C4C4C4"/>
</svg>
