<svg width="17" height="17" viewBox="0 0 17 17" fill="none" xmlns="http://www.w3.org/2000/svg">
<g id="Group 390174369">
<rect id="Rectangle 8710" width="17" height="17" rx="3" fill="#D9D9D9" fill-opacity="0.41"/>
<g id="Group 390174334">
<path id="Ellipse 1201 (Stroke)" fill-rule="evenodd" clip-rule="evenodd" d="M4.57018 9.40281C4.70334 10.0994 5.03515 10.7427 5.52562 11.255C6.01609 11.7673 6.64427 12.1268 7.33443 12.2901C8.0246 12.4535 8.74729 12.4137 9.41536 12.1756C10.0834 11.9375 10.6684 11.5113 11.0997 10.9483C11.531 10.3853 11.7902 9.7095 11.8462 9.00247C11.9021 8.29544 11.7523 7.58733 11.4149 6.96351C11.0775 6.33968 10.5668 5.82677 9.94446 5.48661L10.3363 4.76973C11.0969 5.18548 11.7211 5.81237 12.1335 6.57482C12.5459 7.33728 12.7289 8.20275 12.6606 9.06689C12.5922 9.93104 12.2754 10.757 11.7482 11.4451C11.2211 12.1332 10.5062 12.6542 9.68962 12.9452C8.87308 13.2362 7.9898 13.2848 7.14626 13.0851C6.30273 12.8855 5.53495 12.4461 4.93549 11.8199C4.33603 11.1938 3.93048 10.4076 3.76773 9.55619C3.60498 8.70476 3.69199 7.82443 4.01825 7.02134L4.77515 7.32883C4.50821 7.98591 4.43702 8.70618 4.57018 9.40281Z" fill="white"/>
<path id="Polygon 9" d="M8.68838 3.50107L12.7889 4.59979L9.78711 7.60156L8.68838 3.50107Z" fill="white"/>
</g>
</g>
</svg>
