<svg width="24" height="25" viewBox="0 0 24 25" fill="none" xmlns="http://www.w3.org/2000/svg">
<path d="M4.12446 9.47413C5.79014 9.73039 7.29916 9.64832 8.42521 8.17422C9.7598 6.42712 9.76307 3.97917 10.0363 1.90287C10.0551 1.75959 9.97404 0.799528 9.97404 1.26674C9.97404 1.79162 10.0774 2.36227 10.1676 2.8778C10.5017 4.78661 10.9524 6.24372 12.242 7.7317C13.1365 8.76389 14.3093 9.82058 15.6992 10.0688C16.2179 10.1614 16.7497 10.1896 17.2618 10.3177C17.87 10.4697 17.0985 10.6999 16.8539 10.7118C15.6122 10.7724 14.1448 10.9436 13.2722 11.9702C12.1037 13.3449 11.9067 15.6489 11.4675 17.3427C11.0949 18.78 10.5017 20.9039 10.9421 22.3902C10.9867 22.5407 10.9697 22.8604 10.9697 22.8604C10.9697 22.8604 10.9697 21.9846 10.9697 21.5467C10.9697 20.1754 10.8707 18.9131 10.7208 17.564C10.5851 16.3427 9.91362 15.2712 9.35174 14.2036C8.50719 12.5989 7.54583 11.0568 5.92912 10.1587C5.66428 10.0115 4 8.8813 4 9.47413" stroke="white" stroke-linecap="round"/>
<path d="M6.73828 9.97189C7.50046 9.97189 9.12406 10.1878 9.4833 9.34959C9.56029 9.16994 9.72269 9.11034 9.84976 8.97621C10.0122 8.80478 9.94266 8.58881 10.0019 8.38157C10.1228 7.95835 10.0987 7.54381 10.0987 7.10241C10.0987 6.74927 10.2231 6.46069 10.2231 6.11365C10.2231 5.45403 10.2979 5.63463 10.1471 6.23811C9.94025 7.06541 9.18727 7.96108 8.48071 8.42306C8.10621 8.66792 7.84761 8.45289 7.98287 8.85867C8.13813 9.32445 8.68581 9.40076 9.10992 9.27353C9.93317 9.02656 10.4431 7.97634 10.4721 7.16464C10.4941 6.54873 10.514 5.97881 10.5896 5.37381C10.686 4.60227 10.2004 5.70683 10.0987 5.89239C9.76228 6.50582 9.43539 7.30357 9.23438 7.97363C9.11384 8.37541 8.87648 8.79963 8.85409 9.22513C8.81532 9.96162 9.72883 9.59498 8.97854 10.3453C8.6689 10.6549 8.47115 10.7591 8.10733 10.5665C7.52577 10.2586 8.6887 11.3 8.79186 11.4032C9.9105 12.5218 9.92137 13.8814 10.6587 15.1923C10.7807 15.409 11.4077 16.978 11.1427 15.9183C10.8954 14.9287 10.4883 13.9408 10.1263 12.9866C10.0443 12.7704 9.77965 12.4611 9.53861 12.4611C8.72583 12.4611 8.79243 10.961 8.88174 11.0229C9.44384 11.412 9.66656 12.359 9.91199 12.9589C10.1243 13.4779 10.2994 13.9805 10.4721 13.0972C10.6993 11.9341 10.4905 10.9941 10.0987 9.91657C9.79262 9.07492 10.5152 11.6586 10.721 12.5302C10.7344 12.5872 10.8236 13.2074 10.8523 12.8483C10.9158 12.0549 10.9728 11.3335 10.8385 10.5389C10.7715 10.1424 10.131 7.71154 10.4997 9.36342C10.714 10.3236 11.1209 13.2049 11.2188 12.226C11.3587 10.8273 11.4197 9.41958 11.1635 8.02894C10.9579 6.91292 11.8888 8.84175 11.9932 9.07301C12.0699 9.24291 12.3495 9.66047 12.3182 9.19056C12.2783 8.59176 11.9522 7.96057 11.6613 7.44813C11.1561 6.55797 11.4498 7.57744 11.4677 7.95288C11.4968 8.56308 10.8967 7.49665 10.6311 7.27527C10.3806 7.06652 10.9934 7.81804 11.1912 8.07734C11.5581 8.55862 11.849 9.14398 12.3113 9.54319C12.5754 9.77134 13.0541 10.1377 13.3968 10.2139C13.6434 10.2687 13.9127 10.4697 14.1436 10.4697C14.6872 10.4697 13.5873 9.66051 13.4867 9.59851C13.31 9.48952 12.268 8.57743 12.8437 9.22513C13.2223 9.65106 13.6976 9.94536 14.2335 10.124C14.3321 10.1569 14.9989 10.4526 14.6207 10.2761C13.9069 9.94299 13.054 10.1287 12.3113 10.2485C11.4393 10.3891 10.375 10.6039 9.6285 11.092C9.46547 11.1986 8.98843 11.3745 9.13066 11.659C9.25076 11.8992 9.64211 10.0092 9.66307 9.87508C9.72625 9.47074 9.84976 9.20125 9.84976 8.78261C9.84976 8.38434 9.66579 7.85608 10.1678 7.85608C12.2606 7.85608 10.2521 11.0121 9.98113 11.8249C9.68099 12.7254 10.3826 13.0323 10.9007 13.6918C11.2827 14.1779 11.0943 13.1882 11.0943 12.952C11.0943 12.3252 11.0736 11.3046 11.8688 11.1197C13.0043 10.8556 11.4958 13.4062 11.3156 13.9269C11.2822 14.0233 11.0919 14.4891 11.288 14.321C11.8171 13.8675 12.1179 12.8705 12.2421 12.2121C12.3593 11.5912 12.734 11.4 13.1963 11.0367C13.279 10.9718 13.6259 10.3851 13.4591 10.7186" stroke="white" stroke-linecap="round"/>
<path d="M16.063 3.30227C16.9066 3.37306 17.6708 3.35039 18.241 2.9432C18.9169 2.46059 18.9186 1.78439 19.0569 1.21084C19.0665 1.17126 19.0254 0.906064 19.0254 1.03513C19.0254 1.18011 19.0778 1.33775 19.1235 1.48015C19.2926 2.00743 19.5209 2.40993 20.1739 2.82096C20.627 3.10608 21.2209 3.39797 21.9248 3.46653C22.1875 3.49212 22.4568 3.49992 22.7161 3.53529C23.0241 3.57729 22.6334 3.64086 22.5095 3.64416C21.8808 3.66089 21.1376 3.7082 20.6957 3.99178C20.1039 4.37151 20.0041 5.00796 19.7818 5.47583C19.5931 5.87286 19.2926 6.45955 19.5156 6.87012C19.5382 6.9117 19.5296 7 19.5296 7C19.5296 7 19.5296 6.75807 19.5296 6.6371C19.5296 6.25831 19.4795 5.90963 19.4036 5.53695C19.3349 5.19959 18.9948 4.9036 18.7103 4.6087C18.2826 4.16545 17.7957 3.73947 16.977 3.49136C16.8428 3.45072 16 3.13852 16 3.30227" stroke="white" stroke-linecap="round"/>
<path d="M17.3867 3.4398C17.7727 3.4398 18.5949 3.49944 18.7769 3.2679C18.8159 3.21827 18.8981 3.20181 18.9625 3.16476C19.0447 3.11741 19.0095 3.05775 19.0395 3.0005C19.1007 2.88359 19.0885 2.76908 19.0885 2.64715C19.0885 2.54961 19.1515 2.46989 19.1515 2.37403C19.1515 2.19182 19.1894 2.24171 19.113 2.40841C19.0083 2.63693 18.627 2.88435 18.2691 3.01196C18.0795 3.0796 17.9485 3.0202 18.017 3.13229C18.0956 3.26095 18.373 3.28203 18.5878 3.24689C19.0047 3.17867 19.2629 2.88856 19.2776 2.66434C19.2887 2.49421 19.2988 2.33678 19.3371 2.16966C19.386 1.95653 19.14 2.26165 19.0885 2.31291C18.9182 2.48236 18.7526 2.70272 18.6508 2.88781C18.5898 2.9988 18.4696 3.11598 18.4582 3.23352C18.4386 3.43696 18.9012 3.33568 18.5212 3.54294C18.3644 3.62847 18.2643 3.65726 18.08 3.60406C17.7855 3.51901 18.3745 3.80667 18.4267 3.83516C18.9932 4.14417 18.9987 4.51973 19.3721 4.88183C19.4339 4.94171 19.7514 5.37512 19.6173 5.08238C19.492 4.80903 19.2858 4.53614 19.1025 4.27255C19.061 4.21284 18.9269 4.12739 18.8049 4.12739C18.3933 4.12739 18.427 3.71303 18.4722 3.73011C18.7569 3.83761 18.8697 4.09919 18.994 4.26491C19.1015 4.40828 19.1902 4.54711 19.2776 4.30311C19.3927 3.98182 19.2869 3.72216 19.0885 3.42452C18.9335 3.19203 19.2994 3.90573 19.4037 4.14649C19.4105 4.16223 19.4556 4.33354 19.4702 4.23435C19.5023 4.01521 19.5312 3.81591 19.4632 3.59642C19.4292 3.48689 19.1049 2.81542 19.2916 3.27172C19.4002 3.53696 19.6062 4.33287 19.6558 4.06245C19.7266 3.67608 19.7575 3.28723 19.6278 2.90309C19.5237 2.59481 19.9951 3.12762 20.048 3.1915C20.0868 3.23843 20.2284 3.35377 20.2125 3.22397C20.1923 3.05856 20.0272 2.88421 19.8799 2.74265C19.624 2.49676 19.7728 2.77837 19.7818 2.88208C19.7966 3.05064 19.4927 2.75606 19.3581 2.6949C19.2313 2.63724 19.5416 2.84483 19.6418 2.91646C19.8276 3.04941 19.9749 3.2111 20.209 3.32138C20.3428 3.3844 20.5852 3.48561 20.7588 3.50665C20.8837 3.52178 21.0201 3.57732 21.137 3.57732C21.4122 3.57732 20.8552 3.35378 20.8043 3.33666C20.7148 3.30655 20.1871 3.0546 20.4787 3.23352C20.6704 3.35117 20.9111 3.43247 21.1825 3.48182C21.2324 3.4909 21.5701 3.5726 21.3786 3.52384C21.0171 3.43182 20.5852 3.48311 20.209 3.5162C19.7675 3.55505 19.2284 3.61439 18.8504 3.74921C18.7678 3.77866 18.5263 3.82725 18.5983 3.90583C18.6591 3.97218 18.8573 3.4501 18.8679 3.41306C18.8999 3.30136 18.9625 3.22692 18.9625 3.11128C18.9625 3.00127 18.8693 2.85534 19.1235 2.85534C20.1833 2.85534 19.1662 3.72713 19.029 3.95167C18.877 4.2004 19.2323 4.28519 19.4947 4.46737C19.6881 4.60164 19.5927 4.32824 19.5927 4.263C19.5927 4.08987 19.5823 3.80793 19.9849 3.75685C20.56 3.68391 19.7961 4.38848 19.7048 4.53231C19.6879 4.55893 19.5915 4.6876 19.6908 4.64118C19.9588 4.51588 20.1111 4.2405 20.174 4.05863C20.2333 3.88712 20.4231 3.83428 20.6572 3.73393C20.6991 3.716 20.8748 3.55393 20.7903 3.64608" stroke="white" stroke-linecap="round"/>
<path d="M1.03045 21.5348C1.43796 21.582 1.80714 21.5669 2.08262 21.2955C2.40913 20.9737 2.40993 20.5229 2.47677 20.1406C2.48138 20.1142 2.46154 19.9374 2.46154 20.0234C2.46154 20.1201 2.48684 20.2252 2.50891 20.3201C2.59063 20.6716 2.70089 20.94 3.01639 21.214C3.23524 21.4041 3.52216 21.5986 3.86219 21.6444C3.9891 21.6614 4.11919 21.6666 4.24449 21.6902C4.39329 21.7182 4.20453 21.7606 4.14468 21.7628C3.84093 21.7739 3.48192 21.8055 3.26844 21.9945C2.98257 22.2477 2.93436 22.672 2.82693 22.9839C2.73576 23.2486 2.59063 23.6397 2.69837 23.9134C2.70928 23.9411 2.70513 24 2.70513 24C2.70513 24 2.70513 23.8387 2.70513 23.7581C2.70513 23.5055 2.68091 23.2731 2.64424 23.0246C2.61104 22.7997 2.44676 22.6024 2.3093 22.4058C2.10268 22.1103 1.86748 21.8263 1.47196 21.6609C1.40716 21.6338 1 21.4257 1 21.5348" stroke="white" stroke-linecap="round"/>
<path d="M1.66992 21.6265C1.85639 21.6265 2.2536 21.6663 2.34149 21.5119C2.36032 21.4788 2.40006 21.4679 2.43114 21.4432C2.47087 21.4116 2.45387 21.3718 2.46836 21.3336C2.49794 21.2557 2.49204 21.1794 2.49204 21.0981C2.49204 21.0331 2.52249 20.9799 2.52249 20.916C2.52249 20.7945 2.54079 20.8278 2.50388 20.9389C2.45328 21.0913 2.26907 21.2562 2.09621 21.3413C2.00459 21.3864 1.94132 21.3468 1.97441 21.4215C2.01239 21.5073 2.14638 21.5213 2.25014 21.4979C2.45155 21.4524 2.57629 21.259 2.58339 21.1095C2.58877 20.9961 2.59364 20.8912 2.61214 20.7798C2.63574 20.6377 2.51694 20.8411 2.49204 20.8753C2.40974 20.9882 2.32977 21.1351 2.28059 21.2585C2.2511 21.3325 2.19303 21.4106 2.18755 21.489C2.17807 21.6246 2.40156 21.5571 2.218 21.6953C2.14225 21.7523 2.09387 21.7715 2.00486 21.736C1.86258 21.6793 2.14709 21.8711 2.17233 21.8901C2.446 22.0961 2.44866 22.3465 2.62906 22.5879C2.65889 22.6278 2.81229 22.9167 2.74747 22.7216C2.68695 22.5393 2.58736 22.3574 2.49881 22.1817C2.47875 22.1419 2.41399 22.0849 2.35502 22.0849C2.15618 22.0849 2.17247 21.8087 2.19432 21.8201C2.33183 21.8917 2.38632 22.0661 2.44637 22.1766C2.49831 22.2722 2.54116 22.3647 2.58339 22.2021C2.63899 21.9879 2.5879 21.8148 2.49204 21.6163C2.41716 21.4613 2.59394 21.9371 2.64428 22.0976C2.64757 22.1081 2.6694 22.2223 2.67642 22.1562C2.69195 22.0101 2.7059 21.8773 2.67304 21.7309C2.65665 21.6579 2.49994 21.2103 2.59015 21.5145C2.64259 21.6913 2.74213 22.2219 2.76608 22.0416C2.8003 21.784 2.81522 21.5248 2.75255 21.2687C2.70225 21.0632 2.92999 21.4184 2.95554 21.461C2.97431 21.4923 3.04271 21.5692 3.03504 21.4826C3.02528 21.3724 2.9455 21.2561 2.87434 21.1617C2.75074 20.9978 2.8226 21.1856 2.82698 21.2547C2.83409 21.3671 2.68728 21.1707 2.62229 21.1299C2.56101 21.0915 2.71094 21.2299 2.75931 21.2776C2.84909 21.3663 2.92026 21.474 3.03335 21.5476C3.09798 21.5896 3.21508 21.6571 3.29893 21.6711C3.35926 21.6812 3.42515 21.7182 3.48163 21.7182C3.61461 21.7182 3.34552 21.5692 3.32092 21.5578C3.27769 21.5377 3.02275 21.3697 3.1636 21.489C3.25623 21.5674 3.3725 21.6216 3.50362 21.6545C3.52775 21.6606 3.69088 21.715 3.59835 21.6825C3.42371 21.6212 3.21506 21.6554 3.03335 21.6774C2.82003 21.7033 2.55963 21.7429 2.37701 21.8328C2.33713 21.8524 2.22042 21.8848 2.25522 21.9372C2.2846 21.9814 2.38034 21.6334 2.38547 21.6087C2.40093 21.5342 2.43114 21.4846 2.43114 21.4075C2.43114 21.3342 2.38613 21.2369 2.50896 21.2369C3.02094 21.2369 2.52957 21.8181 2.46328 21.9678C2.38985 22.1336 2.56149 22.1901 2.68827 22.3116C2.7817 22.4011 2.73563 22.2188 2.73563 22.1753C2.73563 22.0599 2.73056 21.8719 2.92509 21.8379C3.20289 21.7893 2.83386 22.259 2.78976 22.3549C2.7816 22.3726 2.73503 22.4584 2.78299 22.4274C2.91246 22.3439 2.98605 22.1603 3.01644 22.0391C3.0451 21.9247 3.13677 21.8895 3.24988 21.8226C3.2701 21.8106 3.35496 21.7026 3.31416 21.764" stroke="white" stroke-linecap="round"/>
<path d="M16.0182 17.7216C16.2621 17.7499 16.483 17.7408 16.6479 17.5784C16.8432 17.3858 16.8437 17.1161 16.8837 16.8873C16.8865 16.8715 16.8746 16.7657 16.8746 16.8172C16.8746 16.875 16.8897 16.9379 16.9029 16.9947C16.9518 17.2051 17.0178 17.3656 17.2066 17.5296C17.3376 17.6434 17.5093 17.7598 17.7128 17.7872C17.7887 17.7974 17.8666 17.8005 17.9415 17.8146C18.0306 17.8313 17.9176 17.8567 17.8818 17.858C17.7 17.8647 17.4852 17.8836 17.3575 17.9967C17.1864 18.1482 17.1575 18.4021 17.0933 18.5887C17.0387 18.7471 16.9518 18.9812 17.0163 19.145C17.0228 19.1616 17.0204 19.1968 17.0204 19.1968C17.0204 19.1968 17.0204 19.1003 17.0204 19.052C17.0204 18.9009 17.0059 18.7618 16.9839 18.6131C16.9641 18.4785 16.8658 18.3605 16.7835 18.2428C16.6599 18.066 16.5191 17.896 16.2824 17.7971C16.2437 17.7809 16 17.6563 16 17.7216" stroke="white" stroke-linecap="round"/>
<path d="M16.4004 17.7765C16.512 17.7765 16.7497 17.8003 16.8023 17.7079C16.8135 17.6881 16.8373 17.6815 16.8559 17.6667C16.8797 17.6478 16.8695 17.624 16.8782 17.6012C16.8959 17.5546 16.8924 17.5089 16.8924 17.4602C16.8924 17.4213 16.9106 17.3895 16.9106 17.3513C16.9106 17.2786 16.9215 17.2985 16.8994 17.365C16.8692 17.4562 16.7589 17.5549 16.6555 17.6058C16.6007 17.6328 16.5628 17.6091 16.5826 17.6538C16.6053 17.7051 16.6855 17.7135 16.7476 17.6995C16.8681 17.6723 16.9428 17.5565 16.947 17.4671C16.9502 17.3992 16.9532 17.3364 16.9642 17.2697C16.9783 17.1847 16.9073 17.3064 16.8924 17.3269C16.8431 17.3945 16.7952 17.4824 16.7658 17.5562C16.7482 17.6005 16.7134 17.6473 16.7101 17.6942C16.7045 17.7753 16.8382 17.7349 16.7284 17.8176C16.683 17.8517 16.6541 17.8632 16.6008 17.842C16.5157 17.8081 16.6859 17.9228 16.701 17.9342C16.8648 18.0575 16.8664 18.2073 16.9743 18.3517C16.9922 18.3756 17.084 18.5485 17.0452 18.4318C17.009 18.3227 16.9494 18.2138 16.8964 18.1087C16.8844 18.0849 16.8456 18.0508 16.8104 18.0508C16.6914 18.0508 16.7011 17.8855 16.7142 17.8923C16.7965 17.9352 16.8291 18.0395 16.865 18.1056C16.8961 18.1628 16.9217 18.2182 16.947 18.1209C16.9803 17.9927 16.9497 17.8891 16.8924 17.7704C16.8475 17.6776 16.9533 17.9623 16.9835 18.0584C16.9854 18.0647 16.9985 18.133 17.0027 18.0934C17.012 18.006 17.0203 17.9265 17.0007 17.8389C16.9909 17.7952 16.8971 17.5274 16.9511 17.7094C16.9824 17.8152 17.042 18.1327 17.0563 18.0249C17.0768 17.8707 17.0857 17.7156 17.0482 17.5623C17.0181 17.4394 17.1544 17.6519 17.1697 17.6774C17.1809 17.6961 17.2219 17.7421 17.2173 17.6904C17.2114 17.6244 17.1637 17.5548 17.1211 17.4983C17.0472 17.4002 17.0902 17.5126 17.0928 17.554C17.097 17.6212 17.0092 17.5037 16.9703 17.4793C16.9336 17.4563 17.0233 17.5391 17.0523 17.5677C17.106 17.6207 17.1486 17.6852 17.2163 17.7292C17.255 17.7544 17.325 17.7947 17.3752 17.8031C17.4113 17.8092 17.4507 17.8313 17.4845 17.8313C17.5641 17.8313 17.4031 17.7421 17.3884 17.7353C17.3625 17.7233 17.2099 17.6228 17.2942 17.6942C17.3497 17.7411 17.4192 17.7735 17.4977 17.7932C17.5121 17.7968 17.6098 17.8294 17.5544 17.81C17.4499 17.7733 17.325 17.7937 17.2163 17.8069C17.0886 17.8224 16.9328 17.8461 16.8235 17.8999C16.7997 17.9116 16.7298 17.931 16.7506 17.9624C16.7682 17.9888 16.8255 17.7806 16.8286 17.7658C16.8378 17.7212 16.8559 17.6915 16.8559 17.6454C16.8559 17.6015 16.829 17.5433 16.9025 17.5433C17.2089 17.5433 16.9148 17.8911 16.8751 17.9807C16.8312 18.0799 16.9339 18.1137 17.0098 18.1864C17.0657 18.24 17.0381 18.1309 17.0381 18.1049C17.0381 18.0358 17.0351 17.9233 17.1515 17.9029C17.3177 17.8738 17.0969 18.1549 17.0705 18.2123C17.0656 18.2229 17.0378 18.2743 17.0665 18.2557C17.1439 18.2058 17.188 18.0959 17.2062 18.0233C17.2233 17.9549 17.2782 17.9338 17.3459 17.8938C17.358 17.8866 17.4087 17.822 17.3843 17.8588" stroke="white" stroke-linecap="round"/>
</svg>
