<svg width="66" height="66" viewBox="0 0 66 66" fill="none" xmlns="http://www.w3.org/2000/svg">
<path d="M41.1579 18.3158H41.1905M33 60.7368H11.7895C9.19314 60.7368 6.70315 59.7055 4.86727 57.8696C3.03139 56.0337 2 53.5437 2 50.9474V11.7895C2 9.19314 3.03139 6.70315 4.86727 4.86727C6.70315 3.03139 9.19314 2 11.7895 2H50.9474C53.5437 2 56.0337 3.03139 57.8696 4.86727C59.7055 6.70315 60.7368 9.19314 60.7368 11.7895V33" stroke="#F55376" stroke-width="4" stroke-linecap="round" stroke-linejoin="round"/>
<path d="M2 44.421L18.3158 28.1052C21.344 25.1912 25.0771 25.1912 28.1053 28.1052L41.1579 41.1578" stroke="#F55376" stroke-width="4" stroke-linecap="round" stroke-linejoin="round"/>
<path d="M37.8955 37.8948L41.1587 34.6316C43.345 32.5301 45.8902 31.9428 48.2789 32.8695M44.4218 54.2106H64.0008M54.2113 44.4211V64" stroke="#F55376" stroke-width="4" stroke-linecap="round" stroke-linejoin="round"/>
</svg>
