<svg width="32" height="32" viewBox="0 0 32 32" fill="none" xmlns="http://www.w3.org/2000/svg">
<rect width="32" height="32" rx="9" fill="#917A8B" fill-opacity="0.14"/>
<rect x="0.5" y="0.5" width="31" height="31" rx="8.5" stroke="#E1E1E1" stroke-opacity="0.4"/>
<path fill-rule="evenodd" clip-rule="evenodd" d="M12.4444 11.5556C12.4444 10.6126 12.819 9.70819 13.4858 9.0414C14.1526 8.3746 15.057 8 16 8C16.943 8 17.8474 8.3746 18.5142 9.0414C19.181 9.70819 19.5556 10.6126 19.5556 11.5556C19.5556 12.4985 19.181 13.4029 18.5142 14.0697C17.8474 14.7365 16.943 15.1111 16 15.1111C15.057 15.1111 14.1526 14.7365 13.4858 14.0697C12.819 13.4029 12.4444 12.4985 12.4444 11.5556ZM12.4444 16.8889C11.2657 16.8889 10.1352 17.3571 9.30175 18.1906C8.46825 19.0241 8 20.1546 8 21.3333C8 22.0406 8.28095 22.7189 8.78105 23.219C9.28115 23.719 9.95942 24 10.6667 24H21.3333C22.0406 24 22.7189 23.719 23.219 23.219C23.719 22.7189 24 22.0406 24 21.3333C24 20.1546 23.5317 19.0241 22.6983 18.1906C21.8648 17.3571 20.7343 16.8889 19.5556 16.8889H12.4444Z" fill="white"/>
</svg>
