<svg width="20" height="20" viewBox="0 0 10 10" fill="none" xmlns="http://www.w3.org/2000/svg">
<path d="M4.99998 9C7.2091 9 8.99995 7.20914 8.99995 5C8.99995 2.79086 7.2091 1 4.99998 1C2.79085 1 1 2.79086 1 5C1 7.20914 2.79085 9 4.99998 9Z" stroke="#A0A0A0" stroke-width="0.4" stroke-linecap="round" stroke-linejoin="round"/>
<path d="M6.59997 3.6C6.59997 1.39086 5.88364 1 4.99998 1C4.11633 1 3.39999 1.39086 3.39999 3.6" stroke="#A0A0A0" stroke-width="0.4" stroke-linecap="round" stroke-linejoin="round"/>
<path d="M3.40003 6.4C3.40003 8.60914 4.11636 9 5.00002 9C5.88367 9 6.60001 8.60914 6.60001 6.4" stroke="#A0A0A0" stroke-width="0.4" stroke-linecap="round" stroke-linejoin="round"/>
<path d="M2.17148 2.22852C2.89533 2.95238 3.89533 3.4001 4.99988 3.4001C6.10445 3.4001 7.10445 2.95238 7.8283 2.22852" stroke="#A0A0A0" stroke-width="0.4" stroke-linecap="round" stroke-linejoin="round"/>
<path d="M7.8283 7.77156C7.10445 7.0477 6.10445 6.59998 4.99988 6.59998C3.89533 6.59998 2.89533 7.0477 2.17148 7.77156" stroke="#A0A0A0" stroke-width="0.4" stroke-linecap="round" stroke-linejoin="round"/>
<path d="M8.80007 5C8.80007 5.1482 8.72581 5.30962 8.54831 5.47748C8.3704 5.64574 8.10221 5.80648 7.75423 5.94568C7.05938 6.22362 6.08573 6.4 5.0001 6.4C3.91447 6.4 2.94082 6.22362 2.24597 5.94568C1.89798 5.80648 1.6298 5.64574 1.45188 5.47748C1.27439 5.30962 1.20012 5.1482 1.20012 5C1.20012 4.8518 1.27439 4.69038 1.45188 4.52252C1.6298 4.35426 1.89798 4.19352 2.24597 4.05433C2.94082 3.77638 3.91447 3.6 5.0001 3.6C6.08573 3.6 7.05938 3.77638 7.75423 4.05433C8.10221 4.19352 8.3704 4.35426 8.54831 4.52252C8.72581 4.69038 8.80007 4.8518 8.80007 5Z" stroke="#A0A0A0" stroke-width="0.4"/>
<path d="M6.0598 5.4L5.78152 4.6H6.01643L6.1899 5.1628H6.19893L6.37421 4.6H6.60731L6.78439 5.15985H6.79343L6.96509 4.6H7.2L6.92172 5.4H6.6814L6.49708 4.85783H6.48444L6.30013 5.4H6.0598Z" fill="#A0A0A0"/>
<path d="M4.56904 5.4L4.29077 4.6H4.52568L4.69915 5.1628H4.70818L4.88346 4.6H5.11656L5.29364 5.15985H5.30267L5.47434 4.6H5.70924L5.43097 5.4H5.19064L5.00633 4.85783H4.99368L4.80937 5.4H4.56904Z" fill="#A0A0A0"/>
<path d="M3.07832 5.4L2.80005 4.6H3.03495L3.20842 5.1628H3.21746L3.39274 4.6H3.62583L3.80292 5.15985H3.81195L3.98361 4.6H4.21852L3.94025 5.4H3.69992L3.51561 4.85783H3.50296L3.31865 5.4H3.07832Z" fill="#A0A0A0"/>
</svg>
