<svg width="15" height="15" viewBox="0 0 15 15" fill="none" xmlns="http://www.w3.org/2000/svg">
<path d="M7.67334 14.3468C11.3589 14.3468 14.3467 11.359 14.3467 7.67338C14.3467 3.98777 11.3589 1 7.67334 1C3.98775 1 1 3.98777 1 7.67338C1 11.359 3.98775 14.3468 7.67334 14.3468Z" stroke="white" stroke-width="0.4" stroke-linecap="round" stroke-linejoin="round"/>
<path d="M10.3426 5.3377C10.3426 1.65209 9.14748 1 7.67324 1C6.199 1 5.00391 1.65209 5.00391 5.3377" stroke="white" stroke-width="0.4" stroke-linecap="round" stroke-linejoin="round"/>
<path d="M5.0041 10.009C5.0041 13.6946 6.1992 14.3467 7.67344 14.3467C9.14768 14.3467 10.3428 13.6946 10.3428 10.009" stroke="white" stroke-width="0.4" stroke-linecap="round" stroke-linejoin="round"/>
<path d="M2.95459 3.04932C4.16223 4.25696 5.83056 5.00392 7.67334 5.00392C9.51615 5.00392 11.1845 4.25696 12.3921 3.04932" stroke="white" stroke-width="0.4" stroke-linecap="round" stroke-linejoin="round"/>
<path d="M12.3921 12.2974C11.1845 11.0897 9.51615 10.3428 7.67334 10.3428C5.83056 10.3428 4.16223 11.0897 2.95459 12.2974" stroke="white" stroke-width="0.4" stroke-linecap="round" stroke-linejoin="round"/>
<path d="M14.1467 7.67326C14.1467 7.96911 13.9976 8.27118 13.6848 8.56698C13.3716 8.86317 12.9077 9.13913 12.3178 9.37508C11.1392 9.84654 9.4972 10.1426 7.67334 10.1426C5.84948 10.1426 4.20749 9.84654 3.02885 9.37508C2.43898 9.13913 1.97504 8.86317 1.66185 8.56698C1.34907 8.27118 1.2 7.96911 1.2 7.67326C1.2 7.37741 1.34907 7.07533 1.66185 6.77954C1.97504 6.48334 2.43898 6.20739 3.02885 5.97144C4.20749 5.49998 5.84948 5.20391 7.67334 5.20391C9.4972 5.20391 11.1392 5.49998 12.3178 5.97144C12.9077 6.20739 13.3716 6.48334 13.6848 6.77954C13.9976 7.07533 14.1467 7.37741 14.1467 7.67326Z" stroke="white" stroke-width="0.4"/>
<path d="M9.4418 8.34054L8.97754 7.00586H9.36944L9.65885 7.9448H9.67392L9.96634 7.00586H10.3552L10.6507 7.93989H10.6657L10.9521 7.00586H11.344L10.8798 8.34054H10.4788L10.1713 7.436H10.1502L9.84274 8.34054H9.4418Z" fill="white"/>
<path d="M6.95449 8.34054L6.49023 7.00586H6.88214L7.17155 7.9448H7.18662L7.47904 7.00586H7.86793L8.16336 7.93989H8.17844L8.46483 7.00586H8.85673L8.39248 8.34054H7.99153L7.68404 7.436H7.66293L7.35544 8.34054H6.95449Z" fill="white"/>
<path d="M4.46767 8.34054L4.00342 7.00586H4.39532L4.68473 7.9448H4.6998L4.99222 7.00586H5.38111L5.67655 7.93989H5.69162L5.97801 7.00586H6.36992L5.90566 8.34054H5.50471L5.19722 7.436H5.17612L4.86862 8.34054H4.46767Z" fill="white"/>
</svg>
